<svg width="54" height="172" viewBox="0 0 54 172" fill="none" xmlns="http://www.w3.org/2000/svg">
<g clip-path="url(#clip0_8_351)">
<path d="M0 0H53.08V171.358H0V0Z" fill="#E73C37"/>
<path d="M27.32 145.408L26.95 145.248C26.9633 144.661 27.0533 144.181 27.22 143.808C27.3867 143.428 27.6167 143.148 27.91 142.968C28.1967 142.781 28.53 142.688 28.91 142.688C29.31 142.688 29.67 142.781 29.99 142.968C30.3033 143.155 30.55 143.435 30.73 143.808C30.91 144.175 31 144.635 31 145.188V150.588L27.15 150.008L23.5 150.588V145.378C23.5 144.685 23.6633 144.148 23.99 143.768C24.31 143.381 24.7533 143.188 25.32 143.188C25.6333 143.188 25.9333 143.261 26.22 143.408C26.5067 143.555 26.75 143.788 26.95 144.108C27.1433 144.428 27.2667 144.861 27.32 145.408ZM30.54 148.728L29.65 149.448V145.638C29.65 145.311 29.5733 145.058 29.42 144.878C29.26 144.691 29.0367 144.598 28.75 144.598C28.4633 144.598 28.2367 144.701 28.07 144.908C27.8967 145.108 27.81 145.408 27.81 145.808V148.928H26.49V146.048C26.49 145.775 26.4133 145.548 26.26 145.368C26.1 145.188 25.8833 145.098 25.61 145.098C25.39 145.098 25.21 145.175 25.07 145.328C24.9233 145.481 24.85 145.705 24.85 145.998V149.438L23.96 148.728L27.15 148.198L30.54 148.728ZM31.15 139.347C31.15 139.874 31.0433 140.327 30.83 140.707C30.61 141.08 30.3 141.367 29.9 141.567C29.5 141.76 29.0267 141.857 28.48 141.857H25.3V139.997H28.21C28.67 139.997 29.0233 139.887 29.27 139.667C29.5167 139.447 29.64 139.13 29.64 138.717C29.64 138.41 29.5767 138.15 29.45 137.937C29.3233 137.724 29.14 137.56 28.9 137.447C28.66 137.327 28.3767 137.267 28.05 137.267L28.36 136.687C28.96 136.754 29.47 136.914 29.89 137.167C30.3033 137.414 30.6167 137.727 30.83 138.107C31.0433 138.48 31.15 138.894 31.15 139.347ZM31 136.907L28.78 137.267H25.3V135.417H29.06L31 135.047V136.907ZM31 128.93L28.85 129.18L28.17 128.84L27.31 129.17L23.3 128.71V126.78L28.01 127.35L31 127.01V128.93ZM28.15 128.5C28.7567 128.6 29.2867 128.79 29.74 129.07C30.1867 129.35 30.5367 129.704 30.79 130.13C31.0367 130.557 31.16 131.037 31.16 131.57C31.16 132.13 31.0333 132.624 30.78 133.05C30.5267 133.47 30.1767 133.8 29.73 134.04C29.2767 134.28 28.75 134.4 28.15 134.4C27.55 134.4 27.0267 134.28 26.58 134.04C26.1267 133.8 25.7733 133.47 25.52 133.05C25.2667 132.624 25.14 132.13 25.14 131.57C25.14 131.037 25.2667 130.557 25.52 130.13C25.7667 129.704 26.1133 129.35 26.56 129.07C27.0067 128.784 27.5367 128.594 28.15 128.5ZM28.15 132.52C28.4567 132.52 28.73 132.457 28.97 132.33C29.2033 132.204 29.39 132.03 29.53 131.81C29.6633 131.584 29.73 131.324 29.73 131.03C29.73 130.737 29.6633 130.46 29.53 130.2C29.39 129.934 29.2033 129.7 28.97 129.5C28.73 129.3 28.4567 129.15 28.15 129.05C27.8433 129.15 27.5733 129.3 27.34 129.5C27.1 129.7 26.9133 129.934 26.78 130.2C26.64 130.46 26.57 130.737 26.57 131.03C26.57 131.324 26.64 131.584 26.78 131.81C26.9133 132.03 27.1 132.204 27.34 132.33C27.5733 132.457 27.8433 132.52 28.15 132.52ZM29.57 120.956H28.6L28.37 120.896H27.05L26.84 120.956H25.3V119.096H29.48C30.1867 119.096 30.7867 119.26 31.28 119.586C31.78 119.906 32.16 120.353 32.42 120.926C32.68 121.5 32.81 122.166 32.81 122.926C32.81 123.453 32.74 123.94 32.6 124.386C32.4667 124.826 32.2633 125.263 31.99 125.696H30.57C30.8767 125.283 31.0967 124.853 31.23 124.406C31.37 123.96 31.44 123.506 31.44 123.046C31.44 122.373 31.29 121.856 30.99 121.496C30.6833 121.136 30.21 120.956 29.57 120.956ZM30.44 123.476C30.44 124.01 30.33 124.486 30.11 124.906C29.89 125.32 29.5833 125.65 29.19 125.896C28.79 126.136 28.3233 126.256 27.79 126.256C27.2567 126.256 26.7933 126.136 26.4 125.896C26 125.65 25.69 125.32 25.47 124.906C25.25 124.486 25.14 124.01 25.14 123.476C25.14 123.076 25.2033 122.71 25.33 122.376C25.45 122.043 25.61 121.746 25.81 121.486C26.01 121.226 26.23 121.006 26.47 120.826C26.7033 120.646 26.94 120.51 27.18 120.416C27.4133 120.323 27.6233 120.276 27.81 120.276C28.0567 120.276 28.3333 120.35 28.64 120.496C28.94 120.643 29.2267 120.856 29.5 121.136C29.7733 121.41 30 121.743 30.18 122.136C30.3533 122.53 30.44 122.976 30.44 123.476ZM29.15 122.856C29.15 122.443 29.04 122.073 28.82 121.746C28.6 121.42 28.2567 121.136 27.79 120.896C27.3167 121.136 26.97 121.423 26.75 121.756C26.53 122.083 26.42 122.45 26.42 122.856C26.42 123.176 26.4767 123.45 26.59 123.676C26.7033 123.903 26.8633 124.08 27.07 124.206C27.27 124.326 27.51 124.386 27.79 124.386C28.0633 124.386 28.3033 124.326 28.51 124.206C28.71 124.086 28.8667 123.913 28.98 123.686C29.0933 123.453 29.15 123.176 29.15 122.856ZM31.16 114.659C31.16 115.339 31.0333 115.949 30.78 116.489C30.5267 117.023 30.1733 117.443 29.72 117.749C29.2667 118.056 28.7367 118.209 28.13 118.209C27.5367 118.209 27.0167 118.063 26.57 117.769C26.1233 117.476 25.7733 117.073 25.52 116.559C25.2667 116.039 25.14 115.453 25.14 114.799C25.14 114.133 25.2867 113.559 25.58 113.079C25.8733 112.599 26.2867 112.229 26.82 111.969C27.3533 111.709 27.98 111.579 28.7 111.579V116.719H27.53V112.599L27.95 113.269C27.6367 113.289 27.3733 113.366 27.16 113.499C26.94 113.626 26.7733 113.796 26.66 114.009C26.54 114.223 26.48 114.476 26.48 114.769C26.48 115.089 26.5433 115.366 26.67 115.599C26.7967 115.833 26.9733 116.016 27.2 116.149C27.4267 116.276 27.69 116.339 27.99 116.339C28.37 116.339 28.6933 116.256 28.96 116.089C29.2267 115.916 29.43 115.669 29.57 115.349C29.71 115.023 29.78 114.626 29.78 114.159C29.78 113.733 29.7233 113.306 29.61 112.879C29.49 112.453 29.3233 112.069 29.11 111.729H30.32C30.5867 112.116 30.7933 112.559 30.94 113.059C31.0867 113.553 31.16 114.086 31.16 114.659ZM26.68 111.321H25.87L25.44 110.141L23.78 109.351V108.281H25.3V105.821H26.68V108.281H28.56C28.9867 108.281 29.2867 108.194 29.46 108.021C29.6267 107.848 29.71 107.538 29.71 107.091C29.71 106.811 29.6867 106.561 29.64 106.341C29.5867 106.121 29.5167 105.914 29.43 105.721H30.84C30.92 105.921 30.9933 106.184 31.06 106.511C31.1267 106.831 31.16 107.164 31.16 107.511C31.16 108.118 31.0633 108.618 30.87 109.011C30.6767 109.398 30.4067 109.684 30.06 109.871C29.7067 110.051 29.2933 110.141 28.82 110.141H26.68V111.321ZM29.71 95.2634L29.82 95.8734H23.5V94.0434H31V96.4234L24.68 100.993L24.57 100.383H31V102.213H23.5V99.7634L29.71 95.2634ZM31 87.5826L28.85 87.8326L28.17 87.4926L27.31 87.8226L23.3 87.3626V85.4326L28.01 86.0026L31 85.6626V87.5826ZM28.15 87.1526C28.7567 87.2526 29.2867 87.4426 29.74 87.7226C30.1867 88.0026 30.5367 88.3559 30.79 88.7826C31.0367 89.2092 31.16 89.6892 31.16 90.2226C31.16 90.7826 31.0333 91.2759 30.78 91.7026C30.5267 92.1226 30.1767 92.4526 29.73 92.6926C29.2767 92.9326 28.75 93.0526 28.15 93.0526C27.55 93.0526 27.0267 92.9326 26.58 92.6926C26.1267 92.4526 25.7733 92.1226 25.52 91.7026C25.2667 91.2759 25.14 90.7826 25.14 90.2226C25.14 89.6892 25.2667 89.2092 25.52 88.7826C25.7667 88.3559 26.1133 88.0026 26.56 87.7226C27.0067 87.4359 27.5367 87.2459 28.15 87.1526ZM28.15 91.1726C28.4567 91.1726 28.73 91.1092 28.97 90.9826C29.2033 90.8559 29.39 90.6826 29.53 90.4626C29.6633 90.2359 29.73 89.9759 29.73 89.6826C29.73 89.3892 29.6633 89.1126 29.53 88.8526C29.39 88.5859 29.2033 88.3526 28.97 88.1526C28.73 87.9526 28.4567 87.8026 28.15 87.7026C27.8433 87.8026 27.5733 87.9526 27.34 88.1526C27.1 88.3526 26.9133 88.5859 26.78 88.8526C26.64 89.1126 26.57 89.3892 26.57 89.6826C26.57 89.9759 26.64 90.2359 26.78 90.4626C26.9133 90.6826 27.1 90.8559 27.34 90.9826C27.5733 91.1092 27.8433 91.1726 28.15 91.1726ZM25.22 84.609L25.41 83.689L25.22 82.759H31V84.609H25.22ZM24.7 83.679C24.7 84.0057 24.6167 84.2723 24.45 84.479C24.2767 84.6857 24.05 84.789 23.77 84.789C23.4833 84.789 23.2567 84.6857 23.09 84.479C22.9233 84.2723 22.84 84.0057 22.84 83.679C22.84 83.3457 22.9233 83.079 23.09 82.879C23.2567 82.679 23.4833 82.579 23.77 82.579C24.05 82.579 24.2767 82.679 24.45 82.879C24.6167 83.079 24.7 83.3457 24.7 83.679ZM31.16 78.2421C31.16 78.9621 31.0333 79.5921 30.78 80.1321C30.5267 80.6721 30.1733 81.0921 29.72 81.3921C29.2667 81.6921 28.7433 81.8421 28.15 81.8421C27.55 81.8421 27.0267 81.6921 26.58 81.3921C26.1267 81.0921 25.7733 80.6721 25.52 80.1321C25.2667 79.5854 25.14 78.9554 25.14 78.2421C25.14 77.5221 25.2667 76.8921 25.52 76.3521C25.7733 75.8121 26.1267 75.3921 26.58 75.0921C27.0267 74.7854 27.55 74.6321 28.15 74.6321C28.75 74.6321 29.2767 74.7854 29.73 75.0921C30.1767 75.3921 30.5267 75.8121 30.78 76.3521C31.0333 76.8921 31.16 77.5221 31.16 78.2421ZM29.76 78.2421C29.76 77.8754 29.6967 77.5654 29.57 77.3121C29.4367 77.0521 29.25 76.8554 29.01 76.7221C28.77 76.5821 28.4833 76.5121 28.15 76.5121C27.8167 76.5121 27.53 76.5821 27.29 76.7221C27.0433 76.8554 26.8567 77.0521 26.73 77.3121C26.5967 77.5654 26.53 77.8754 26.53 78.2421C26.53 78.5954 26.5967 78.9021 26.73 79.1621C26.8567 79.4221 27.0433 79.6221 27.29 79.7621C27.53 79.9021 27.8167 79.9721 28.15 79.9721C28.4833 79.9721 28.77 79.9021 29.01 79.7621C29.25 79.6221 29.4367 79.4221 29.57 79.1621C29.6967 78.9021 29.76 78.5954 29.76 78.2421ZM28.55 71.421V69.511C28.7767 69.4777 28.9767 69.3743 29.15 69.201C29.3233 69.0277 29.4567 68.7977 29.55 68.511C29.6433 68.2177 29.69 67.8777 29.69 67.491C29.69 66.9377 29.6133 66.5043 29.46 66.191C29.3067 65.871 29.09 65.711 28.81 65.711C28.5967 65.711 28.4333 65.8043 28.32 65.991C28.2 66.171 28.1133 66.511 28.06 67.011L27.91 68.461C27.81 69.4677 27.5767 70.1977 27.21 70.651C26.8433 71.0977 26.3433 71.321 25.71 71.321C25.21 71.321 24.7833 71.1743 24.43 70.881C24.0767 70.581 23.8067 70.1643 23.62 69.631C23.4333 69.091 23.34 68.461 23.34 67.741C23.34 67.0277 23.4433 66.3977 23.65 65.851C23.8567 65.3043 24.1433 64.8677 24.51 64.541C24.8767 64.2143 25.3033 64.0377 25.79 64.011V65.921C25.59 65.9477 25.42 66.041 25.28 66.201C25.1333 66.3543 25.02 66.5643 24.94 66.831C24.8533 67.091 24.81 67.4077 24.81 67.781C24.81 68.281 24.8833 68.681 25.03 68.981C25.17 69.2743 25.3733 69.421 25.64 69.421C25.84 69.421 25.9967 69.3343 26.11 69.161C26.2233 68.981 26.3067 68.6643 26.36 68.211L26.53 66.681C26.6033 65.981 26.72 65.421 26.88 65.001C27.04 64.581 27.26 64.2777 27.54 64.091C27.82 63.9043 28.1733 63.811 28.6 63.811C29.1133 63.811 29.5633 63.9677 29.95 64.281C30.33 64.5877 30.6267 65.021 30.84 65.581C31.0533 66.1343 31.16 66.781 31.16 67.521C31.16 68.2877 31.05 68.961 30.83 69.541C30.61 70.1143 30.3067 70.5677 29.92 70.901C29.5267 71.2277 29.07 71.401 28.55 71.421ZM26.68 63.4793H25.87L25.44 62.2993L23.78 61.5093V60.4393H25.3V57.9793H26.68V60.4393H28.56C28.9867 60.4393 29.2867 60.3526 29.46 60.1793C29.6267 60.006 29.71 59.696 29.71 59.2493C29.71 58.9693 29.6867 58.7193 29.64 58.4993C29.5867 58.2793 29.5167 58.0726 29.43 57.8793H30.84C30.92 58.0793 30.9933 58.3426 31.06 58.6693C31.1267 58.9893 31.16 59.3226 31.16 59.6693C31.16 60.276 31.0633 60.776 30.87 61.1693C30.6767 61.556 30.4067 61.8426 30.06 62.0293C29.7067 62.2093 29.2933 62.2993 28.82 62.2993H26.68V63.4793ZM31.16 53.8866C31.16 54.6066 31.0333 55.2366 30.78 55.7766C30.5267 56.3166 30.1733 56.7366 29.72 57.0366C29.2667 57.3366 28.7433 57.4866 28.15 57.4866C27.55 57.4866 27.0267 57.3366 26.58 57.0366C26.1267 56.7366 25.7733 56.3166 25.52 55.7766C25.2667 55.23 25.14 54.6 25.14 53.8866C25.14 53.1666 25.2667 52.5366 25.52 51.9966C25.7733 51.4566 26.1267 51.0366 26.58 50.7366C27.0267 50.43 27.55 50.2766 28.15 50.2766C28.75 50.2766 29.2767 50.43 29.73 50.7366C30.1767 51.0366 30.5267 51.4566 30.78 51.9966C31.0333 52.5366 31.16 53.1666 31.16 53.8866ZM29.76 53.8866C29.76 53.52 29.6967 53.21 29.57 52.9566C29.4367 52.6966 29.25 52.5 29.01 52.3666C28.77 52.2266 28.4833 52.1566 28.15 52.1566C27.8167 52.1566 27.53 52.2266 27.29 52.3666C27.0433 52.5 26.8567 52.6966 26.73 52.9566C26.5967 53.21 26.53 53.52 26.53 53.8866C26.53 54.24 26.5967 54.5466 26.73 54.8066C26.8567 55.0666 27.0433 55.2666 27.29 55.4066C27.53 55.5466 27.8167 55.6166 28.15 55.6166C28.4833 55.6166 28.77 55.5466 29.01 55.4066C29.25 55.2666 29.4367 55.0666 29.57 54.8066C29.6967 54.5466 29.76 54.24 29.76 53.8866ZM25.3 49.6544V47.7744L27.35 47.4344H31V49.2944H27.19L25.3 49.6544ZM25.22 44.7144H26.82C26.78 44.8944 26.75 45.0744 26.73 45.2544C26.71 45.4277 26.7 45.5877 26.7 45.7344C26.7 46.0544 26.7667 46.3444 26.9 46.6044C27.0267 46.8577 27.23 47.061 27.51 47.2144C27.79 47.361 28.1533 47.4344 28.6 47.4344L28.14 47.8044C27.7333 47.7577 27.35 47.681 26.99 47.5744C26.63 47.4677 26.3133 47.321 26.04 47.1344C25.76 46.9477 25.54 46.7177 25.38 46.4444C25.22 46.1644 25.14 45.8277 25.14 45.4344C25.14 45.321 25.1467 45.201 25.16 45.0744C25.1733 44.9477 25.1933 44.8277 25.22 44.7144ZM32.81 42.2245C32.81 42.6245 32.76 42.9811 32.66 43.2945C32.56 43.6011 32.41 43.9011 32.21 44.1945H30.9C31.0933 43.8945 31.23 43.6145 31.31 43.3545C31.3967 43.0878 31.44 42.7978 31.44 42.4845C31.44 42.2045 31.38 41.9611 31.26 41.7545C31.14 41.5411 30.92 41.3645 30.6 41.2245L25.3 38.9445V36.9745L31.18 39.7645C31.58 39.9511 31.9 40.1745 32.14 40.4345C32.38 40.6945 32.55 40.9778 32.65 41.2845C32.7567 41.5845 32.81 41.8978 32.81 42.2245ZM30.55 42.0045L25.3 44.4745V42.4345L30.55 40.2145V42.0045ZM16 20.9426V17.0826L25.88 17.7026V20.3426L16 20.9426ZM31.2 19.0226C31.2 19.6492 31.02 20.1559 30.66 20.5426C30.2867 20.9292 29.8067 21.1226 29.22 21.1226C28.6333 21.1226 28.16 20.9292 27.8 20.5426C27.44 20.1559 27.26 19.6492 27.26 19.0226C27.26 18.3959 27.44 17.8892 27.8 17.5026C28.16 17.1159 28.6333 16.9226 29.22 16.9226C29.8067 16.9226 30.2867 17.1159 30.66 17.5026C31.02 17.8892 31.2 18.3959 31.2 19.0226Z" fill="white"/>
</g>
<defs>
<clipPath id="clip0_8_351">
<rect width="53.08" height="171.358" fill="white"/>
</clipPath>
</defs>
</svg>
