<svg width="1147" height="619" viewBox="0 0 1147 619" fill="none" xmlns="http://www.w3.org/2000/svg">
<path d="M157.451 349.4L150.751 350.8V291H173.351V366H144.151L103.851 306.2L110.451 304.8V366H87.9512V291H118.051L157.451 349.4ZM224.891 291C233.891 291 241.758 292.567 248.491 295.7C255.291 298.767 260.558 303.1 264.291 308.7C268.091 314.3 269.991 320.9 269.991 328.5C269.991 336.033 268.091 342.633 264.291 348.3C260.558 353.9 255.291 358.267 248.491 361.4C241.758 364.467 233.891 366 224.891 366H186.291V291H224.891ZM209.391 355.9L198.691 345.3H226.691C230.758 345.3 234.258 344.633 237.191 343.3C240.191 341.9 242.491 339.933 244.091 337.4C245.691 334.867 246.491 331.9 246.491 328.5C246.491 325.033 245.691 322.067 244.091 319.6C242.491 317.067 240.191 315.133 237.191 313.8C234.258 312.4 230.758 311.7 226.691 311.7H198.691L209.391 301.1V355.9ZM279.846 291H303.146V366H279.846V291ZM358.076 367.7C349.076 367.7 341.176 366.067 334.376 362.8C327.643 359.533 322.376 354.967 318.576 349.1C314.843 343.233 312.976 336.367 312.976 328.5C312.976 320.633 314.843 313.767 318.576 307.9C322.376 302.033 327.643 297.467 334.376 294.2C341.176 290.933 349.076 289.3 358.076 289.3C367.076 289.3 374.943 290.933 381.676 294.2C388.476 297.467 393.743 302.033 397.476 307.9C401.276 313.767 403.176 320.633 403.176 328.5C403.176 336.367 401.276 343.233 397.476 349.1C393.743 354.967 388.476 359.533 381.676 362.8C374.943 366.067 367.076 367.7 358.076 367.7ZM358.076 347C362.543 347 366.376 346.267 369.576 344.8C372.843 343.267 375.343 341.133 377.076 338.4C378.81 335.6 379.676 332.3 379.676 328.5C379.676 324.7 378.81 321.433 377.076 318.7C375.343 315.9 372.843 313.767 369.576 312.3C366.376 310.767 362.543 310 358.076 310C353.61 310 349.743 310.767 346.476 312.3C343.276 313.767 340.81 315.9 339.076 318.7C337.343 321.433 336.476 324.7 336.476 328.5C336.476 332.3 337.343 335.6 339.076 338.4C340.81 341.133 343.276 343.267 346.476 344.8C349.743 346.267 353.61 347 358.076 347Z" fill="white"/>
<path d="M424.558 329.1H459.958C460.358 331.7 461.608 334 463.708 336C465.908 337.9 468.858 339.4 472.558 340.5C476.258 341.5 480.608 342 485.608 342C492.508 342 497.858 341.2 501.658 339.6C505.558 338 507.508 335.55 507.508 332.25C507.508 329.95 506.408 328.1 504.208 326.7C502.008 325.2 497.658 324.2 491.158 323.7L471.358 322.05C455.158 320.85 443.408 317.35 436.108 311.55C428.908 305.65 425.308 297.75 425.308 287.85C425.308 279.75 427.658 273 432.358 267.6C437.058 262.1 443.608 257.95 452.008 255.15C460.408 252.35 470.308 250.95 481.708 250.95C492.708 250.95 502.458 252.5 510.958 255.6C519.558 258.7 526.358 263.1 531.358 268.8C536.458 274.4 539.258 280.95 539.758 288.45H504.358C503.958 286.25 502.808 284.35 500.908 282.75C499.108 281.05 496.508 279.75 493.108 278.85C489.708 277.95 485.658 277.5 480.958 277.5C474.758 277.5 469.808 278.25 466.108 279.75C462.508 281.25 460.708 283.5 460.708 286.5C460.708 288.7 461.758 290.5 463.858 291.9C466.058 293.3 470.058 294.25 475.858 294.75L497.608 296.55C508.408 297.35 517.108 299.05 523.708 301.65C530.408 304.15 535.258 307.6 538.258 312C541.258 316.3 542.758 321.75 542.758 328.35C542.758 336.35 540.358 343.4 535.558 349.5C530.758 355.5 524.008 360.2 515.308 363.6C506.708 366.9 496.608 368.55 485.008 368.55C473.108 368.55 462.658 366.9 453.658 363.6C444.658 360.3 437.608 355.7 432.508 349.8C427.408 343.8 424.758 336.9 424.558 329.1ZM588.663 268.65H623.613V366H588.663V268.65ZM546.963 253.5H665.313V284.55H546.963V253.5ZM843.146 302.1H882.446C886.846 302.1 890.246 301.1 892.646 299.1C895.146 297.1 896.396 294.2 896.396 290.4C896.396 286.6 895.146 283.7 892.646 281.7C890.246 279.7 886.846 278.7 882.446 278.7H838.196L853.946 262.5V366H818.996V253.5H887.696C896.396 253.5 904.046 255.05 910.646 258.15C917.246 261.25 922.396 265.55 926.096 271.05C929.796 276.55 931.646 283 931.646 290.4C931.646 297.6 929.796 304 926.096 309.6C922.396 315.1 917.246 319.4 910.646 322.5C904.046 325.5 896.396 327 887.696 327H843.146V302.1ZM858.146 313.35H896.996L935.696 366H895.646L858.146 313.35ZM981.877 366V310.8H1016.83V366H981.877ZM929.227 253.5H967.627L1006.78 303.6H991.777L1030.78 253.5H1069.18L1010.53 328.35L988.027 328.8L929.227 253.5Z" fill="white"/>
<path d="M807 310L702 370.622V249.378L807 310Z" fill="white"/>
<path d="M166.341 125.8L170.141 117.4C181.474 117.667 190.941 119.467 198.541 122.8C206.141 126 211.807 130.467 215.541 136.2C219.274 141.933 221.141 148.667 221.141 156.4C221.141 164.533 219.274 171.867 215.541 178.4C211.941 184.8 206.407 189.867 198.941 193.6C191.474 197.2 182.207 199 171.141 199H56.9406L68.3406 122L56.9406 49H166.941C180.807 49 191.607 52.2667 199.341 58.8C207.207 65.2 211.141 74.1333 211.141 85.6C211.141 92 209.674 98.0667 206.741 103.8C203.941 109.533 199.207 114.4 192.541 118.4C186.007 122.267 177.274 124.733 166.341 125.8ZM102.541 188.6L84.7406 167.4H157.341C162.541 167.4 166.607 166.133 169.541 163.6C172.474 160.933 173.941 157.267 173.941 152.6C173.941 148.2 172.407 144.6 169.341 141.8C166.274 138.867 161.807 137.4 155.941 137.4H95.5406V106.6H149.341C153.474 106.6 156.941 105.333 159.741 102.8C162.541 100.267 163.941 96.9333 163.941 92.8C163.941 89.3333 162.674 86.4667 160.141 84.2C157.741 81.8 154.274 80.6 149.741 80.6H84.9406L102.541 59.4L112.741 122L102.541 188.6ZM284.647 131C284.647 137.267 285.78 142.6 288.047 147C290.314 151.4 293.714 154.867 298.247 157.4C302.78 159.8 308.447 161 315.247 161C322.314 161 328.114 159.8 332.647 157.4C337.18 155 340.514 151.6 342.647 147.2C344.914 142.667 346.047 137.267 346.047 131V49H392.647V133.6C392.647 147.333 389.447 159.4 383.047 169.8C376.647 180.067 367.647 188.067 356.047 193.8C344.447 199.533 330.847 202.4 315.247 202.4C299.914 202.4 286.447 199.533 274.847 193.8C263.247 188.067 254.18 180.067 247.647 169.8C241.247 159.4 238.047 147.333 238.047 133.6V49H284.647V131ZM494.005 49C512.005 49 527.738 52.1333 541.205 58.4C554.805 64.5333 565.338 73.2 572.805 84.4C580.405 95.6 584.205 108.8 584.205 124C584.205 139.067 580.405 152.267 572.805 163.6C565.338 174.8 554.805 183.533 541.205 189.8C527.738 195.933 512.005 199 494.005 199H416.805V49H494.005ZM463.005 178.8L441.605 157.6H497.605C505.738 157.6 512.738 156.267 518.605 153.6C524.605 150.8 529.205 146.867 532.405 141.8C535.605 136.733 537.205 130.8 537.205 124C537.205 117.067 535.605 111.133 532.405 106.2C529.205 101.133 524.605 97.2667 518.605 94.6C512.738 91.8 505.738 90.4 497.605 90.4H441.605L463.005 69.2V178.8ZM758.714 134.2C758.314 143 756.514 151.533 753.314 159.8C750.114 167.933 745.447 175.267 739.314 181.8C733.181 188.2 725.447 193.267 716.114 197C706.781 200.6 695.847 202.4 683.314 202.4C671.581 202.4 660.581 200.733 650.314 197.4C640.047 193.933 630.981 188.933 623.114 182.4C615.247 175.733 609.047 167.533 604.514 157.8C600.114 148.067 597.914 136.8 597.914 124C597.914 111.2 600.114 99.9333 604.514 90.2C609.047 80.4667 615.314 72.3333 623.314 65.8C631.447 59.1333 640.781 54.1333 651.314 50.8C661.981 47.3333 673.447 45.6 685.714 45.6C702.647 45.6 717.181 48.1333 729.314 53.2C741.581 58.2667 751.447 65.2667 758.914 74.2C766.381 83.1333 771.181 93.4 773.314 105H726.514C725.314 100.6 722.781 96.8667 718.914 93.8C715.181 90.6 710.514 88.2 704.914 86.6C699.314 84.8667 693.047 84 686.114 84C677.581 84 670.181 85.4667 663.914 88.4C657.781 91.3333 653.047 95.7333 649.714 101.6C646.381 107.467 644.714 114.933 644.714 124C644.714 133.067 646.514 140.667 650.114 146.8C653.847 152.933 659.114 157.533 665.914 160.6C672.847 163.667 680.981 165.2 690.314 165.2C699.381 165.2 707.381 164 714.314 161.6C721.381 159.2 727.047 155.667 731.314 151C735.581 146.333 738.114 140.533 738.914 133.6L758.714 134.2ZM693.114 148.2V119.2H774.714V199H742.114L735.314 140.6L743.914 148.2H693.114ZM928.859 107.6V140.4H817.459V107.6H928.859ZM849.259 124L839.859 182L821.659 161.8H935.859V199H793.659L804.859 124L793.659 49H934.859V86.2H821.659L839.859 66L849.259 124ZM1003.64 69.2H1050.24V199H1003.64V69.2ZM948.039 49H1105.84V90.4H948.039V49Z" fill="white"/>
<circle cx="1081.5" cy="345.5" r="20.5" fill="white"/>
</svg>
