<svg width="1107" height="374" viewBox="0 0 1107 374" fill="none" xmlns="http://www.w3.org/2000/svg">
<path d="M105.078 237.707L100.758 237.227V291.307H110.998V231.307H97.5578L55.4778 285.387L59.7178 285.867V231.307H49.4778V291.307H63.2378L105.078 237.707ZM151.52 291.307C158.346 291.307 164.32 290.054 169.44 287.547C174.613 285.04 178.64 281.52 181.52 276.987C184.4 272.507 185.84 267.28 185.84 261.307C185.84 255.334 184.4 250.08 181.52 245.547C178.64 241.067 174.613 237.574 169.44 235.067C164.32 232.56 158.346 231.307 151.52 231.307H124.4V291.307H151.52ZM134.96 234.987L129.12 240.587H152.24C156.826 240.587 160.826 241.44 164.24 243.147C167.706 244.907 170.373 247.334 172.24 250.427C174.16 253.574 175.12 257.2 175.12 261.307C175.12 265.467 174.16 269.094 172.24 272.187C170.373 275.28 167.706 277.68 164.24 279.387C160.826 281.147 156.826 282.027 152.24 282.027H129.12L134.96 287.627V234.987ZM196.118 291.307H206.678V231.307H196.118V291.307ZM251.303 230.187C244.476 230.187 238.476 231.494 233.303 234.107C228.129 236.72 224.103 240.347 221.223 244.987C218.343 249.68 216.903 255.12 216.903 261.307C216.903 267.494 218.343 272.907 221.223 277.547C224.103 282.24 228.129 285.894 233.303 288.507C238.476 291.12 244.476 292.427 251.303 292.427C258.129 292.427 264.129 291.12 269.303 288.507C274.476 285.894 278.503 282.24 281.383 277.547C284.263 272.907 285.703 267.494 285.703 261.307C285.703 255.12 284.263 249.68 281.383 244.987C278.503 240.347 274.476 236.72 269.303 234.107C264.129 231.494 258.129 230.187 251.303 230.187ZM251.303 239.627C256.156 239.627 260.343 240.507 263.863 242.267C267.383 244.027 270.103 246.534 272.023 249.787C273.996 253.04 274.983 256.88 274.983 261.307C274.983 265.734 273.996 269.574 272.023 272.827C270.103 276.08 267.383 278.587 263.863 280.347C260.343 282.107 256.156 282.987 251.303 282.987C246.503 282.987 242.316 282.107 238.743 280.347C235.223 278.587 232.476 276.08 230.503 272.827C228.583 269.574 227.623 265.734 227.623 261.307C227.623 256.88 228.583 253.04 230.503 249.787C232.476 246.534 235.223 244.027 238.743 242.267C242.316 240.507 246.503 239.627 251.303 239.627Z" fill="#EF4444"/>
<path d="M304.367 324.72H346.847C347.327 327.84 348.827 330.6 351.347 333C353.987 335.28 357.527 337.08 361.967 338.4C366.407 339.6 371.627 340.2 377.627 340.2C385.907 340.2 392.327 339.24 396.887 337.32C401.567 335.4 403.907 332.46 403.907 328.5C403.907 325.74 402.587 323.52 399.947 321.84C397.307 320.04 392.087 318.84 384.287 318.24L360.527 316.26C341.087 314.82 326.987 310.62 318.227 303.66C309.587 296.58 305.267 287.1 305.267 275.22C305.267 265.5 308.087 257.4 313.727 250.92C319.367 244.32 327.227 239.34 337.307 235.98C347.387 232.62 359.267 230.94 372.947 230.94C386.147 230.94 397.847 232.8 408.047 236.52C418.367 240.24 426.527 245.52 432.527 252.36C438.647 259.08 442.007 266.94 442.607 275.94H400.127C399.647 273.3 398.267 271.02 395.987 269.1C393.827 267.06 390.707 265.5 386.627 264.42C382.547 263.34 377.687 262.8 372.047 262.8C364.607 262.8 358.667 263.7 354.227 265.5C349.907 267.3 347.747 270 347.747 273.6C347.747 276.24 349.007 278.4 351.527 280.08C354.167 281.76 358.967 282.9 365.927 283.5L392.027 285.66C404.987 286.62 415.427 288.66 423.347 291.78C431.387 294.78 437.207 298.92 440.807 304.2C444.407 309.36 446.207 315.9 446.207 323.82C446.207 333.42 443.327 341.88 437.567 349.2C431.807 356.4 423.707 362.04 413.267 366.12C402.947 370.08 390.827 372.06 376.907 372.06C362.627 372.06 350.087 370.08 339.287 366.12C328.487 362.16 320.027 356.64 313.907 349.56C307.787 342.36 304.607 334.08 304.367 324.72ZM501.292 252.18H543.232V369H501.292V252.18ZM451.252 234H593.272V271.26H451.252V234ZM763.078 292.32H810.238C815.518 292.32 819.598 291.12 822.478 288.72C825.478 286.32 826.978 282.84 826.978 278.28C826.978 273.72 825.478 270.24 822.478 267.84C819.598 265.44 815.518 264.24 810.238 264.24H757.138L776.038 244.8V369H734.098V234H816.538C826.978 234 836.158 235.86 844.078 239.58C851.998 243.3 858.178 248.46 862.618 255.06C867.058 261.66 869.278 269.4 869.278 278.28C869.278 286.92 867.058 294.6 862.618 301.32C858.178 307.92 851.998 313.08 844.078 316.8C836.158 320.4 826.978 322.2 816.538 322.2H763.078V292.32ZM781.078 305.82H827.698L874.138 369H826.078L781.078 305.82ZM929.556 369V302.76H971.496V369H929.556ZM866.376 234H912.456L959.436 294.12H941.436L988.236 234H1034.32L963.936 323.82L936.936 324.36L866.376 234Z" fill="white"/>
<path d="M126.341 105.8L130.141 97.4C141.474 97.6667 150.941 99.4667 158.541 102.8C166.141 106 171.807 110.467 175.541 116.2C179.274 121.933 181.141 128.667 181.141 136.4C181.141 144.533 179.274 151.867 175.541 158.4C171.941 164.8 166.407 169.867 158.941 173.6C151.474 177.2 142.207 179 131.141 179H16.9406L28.3406 102L16.9406 29H126.941C140.807 29 151.607 32.2667 159.341 38.8C167.207 45.2 171.141 54.1333 171.141 65.6C171.141 72 169.674 78.0667 166.741 83.8C163.941 89.5333 159.207 94.4 152.541 98.4C146.007 102.267 137.274 104.733 126.341 105.8ZM62.5406 168.6L44.7406 147.4H117.341C122.541 147.4 126.607 146.133 129.541 143.6C132.474 140.933 133.941 137.267 133.941 132.6C133.941 128.2 132.407 124.6 129.341 121.8C126.274 118.867 121.807 117.4 115.941 117.4H55.5406V86.6H109.341C113.474 86.6 116.941 85.3333 119.741 82.8C122.541 80.2667 123.941 76.9333 123.941 72.8C123.941 69.3333 122.674 66.4667 120.141 64.2C117.741 61.8 114.274 60.6 109.741 60.6H44.9406L62.5406 39.4L72.7406 102L62.5406 168.6ZM244.647 111C244.647 117.267 245.78 122.6 248.047 127C250.314 131.4 253.714 134.867 258.247 137.4C262.78 139.8 268.447 141 275.247 141C282.314 141 288.114 139.8 292.647 137.4C297.18 135 300.514 131.6 302.647 127.2C304.914 122.667 306.047 117.267 306.047 111V29H352.647V113.6C352.647 127.333 349.447 139.4 343.047 149.8C336.647 160.067 327.647 168.067 316.047 173.8C304.447 179.533 290.847 182.4 275.247 182.4C259.914 182.4 246.447 179.533 234.847 173.8C223.247 168.067 214.18 160.067 207.647 149.8C201.247 139.4 198.047 127.333 198.047 113.6V29H244.647V111ZM454.005 29C472.005 29 487.738 32.1333 501.205 38.4C514.805 44.5333 525.338 53.2 532.805 64.4C540.405 75.6 544.205 88.8 544.205 104C544.205 119.067 540.405 132.267 532.805 143.6C525.338 154.8 514.805 163.533 501.205 169.8C487.738 175.933 472.005 179 454.005 179H376.805V29H454.005ZM423.005 158.8L401.605 137.6H457.605C465.738 137.6 472.738 136.267 478.605 133.6C484.605 130.8 489.205 126.867 492.405 121.8C495.605 116.733 497.205 110.8 497.205 104C497.205 97.0667 495.605 91.1333 492.405 86.2C489.205 81.1333 484.605 77.2667 478.605 74.6C472.738 71.8 465.738 70.4 457.605 70.4H401.605L423.005 49.2V158.8ZM718.714 114.2C718.314 123 716.514 131.533 713.314 139.8C710.114 147.933 705.447 155.267 699.314 161.8C693.181 168.2 685.447 173.267 676.114 177C666.781 180.6 655.847 182.4 643.314 182.4C631.581 182.4 620.581 180.733 610.314 177.4C600.047 173.933 590.981 168.933 583.114 162.4C575.247 155.733 569.047 147.533 564.514 137.8C560.114 128.067 557.914 116.8 557.914 104C557.914 91.2 560.114 79.9333 564.514 70.2C569.047 60.4667 575.314 52.3333 583.314 45.8C591.447 39.1333 600.781 34.1333 611.314 30.8C621.981 27.3333 633.447 25.6 645.714 25.6C662.647 25.6 677.181 28.1333 689.314 33.2C701.581 38.2667 711.447 45.2667 718.914 54.2C726.381 63.1333 731.181 73.4 733.314 85H686.514C685.314 80.6 682.781 76.8667 678.914 73.8C675.181 70.6 670.514 68.2 664.914 66.6C659.314 64.8667 653.047 64 646.114 64C637.581 64 630.181 65.4667 623.914 68.4C617.781 71.3333 613.047 75.7333 609.714 81.6C606.381 87.4667 604.714 94.9333 604.714 104C604.714 113.067 606.514 120.667 610.114 126.8C613.847 132.933 619.114 137.533 625.914 140.6C632.847 143.667 640.981 145.2 650.314 145.2C659.381 145.2 667.381 144 674.314 141.6C681.381 139.2 687.047 135.667 691.314 131C695.581 126.333 698.114 120.533 698.914 113.6L718.714 114.2ZM653.114 128.2V99.2H734.714V179H702.114L695.314 120.6L703.914 128.2H653.114ZM888.859 87.6V120.4H777.459V87.6H888.859ZM809.259 104L799.859 162L781.659 141.8H895.859V179H753.659L764.859 104L753.659 29H894.859V66.2H781.659L799.859 46L809.259 104ZM963.639 49.2H1010.24V179H963.639V49.2ZM908.039 29H1065.84V70.4H908.039V29Z" fill="white"/>
<path d="M715 309.66C721.667 305.811 721.667 296.189 715 292.34L640 249.038C633.333 245.189 625 250.001 625 257.699V344.301C625 351.999 633.333 356.811 640 352.962L715 309.66Z" fill="white"/>
</svg>
