<svg width="2721" height="1000" viewBox="0 0 2721 1000" fill="none" xmlns="http://www.w3.org/2000/svg">
<path d="M980.367 618.72H1022.85C1023.33 621.84 1024.83 624.6 1027.35 627C1029.99 629.28 1033.53 631.08 1037.97 632.4C1042.41 633.6 1047.63 634.2 1053.63 634.2C1061.91 634.2 1068.33 633.24 1072.89 631.32C1077.57 629.4 1079.91 626.46 1079.91 622.5C1079.91 619.74 1078.59 617.52 1075.95 615.84C1073.31 614.04 1068.09 612.84 1060.29 612.24L1036.53 610.26C1017.09 608.82 1002.99 604.62 994.227 597.66C985.587 590.58 981.267 581.1 981.267 569.22C981.267 559.5 984.087 551.4 989.727 544.92C995.367 538.32 1003.23 533.34 1013.31 529.98C1023.39 526.62 1035.27 524.94 1048.95 524.94C1062.15 524.94 1073.85 526.8 1084.05 530.52C1094.37 534.24 1102.53 539.52 1108.53 546.36C1114.65 553.08 1118.01 560.94 1118.61 569.94H1076.13C1075.65 567.3 1074.27 565.02 1071.99 563.1C1069.83 561.06 1066.71 559.5 1062.63 558.42C1058.55 557.34 1053.69 556.8 1048.05 556.8C1040.61 556.8 1034.67 557.7 1030.23 559.5C1025.91 561.3 1023.75 564 1023.75 567.6C1023.75 570.24 1025.01 572.4 1027.53 574.08C1030.17 575.76 1034.97 576.9 1041.93 577.5L1068.03 579.66C1080.99 580.62 1091.43 582.66 1099.35 585.78C1107.39 588.78 1113.21 592.92 1116.81 598.2C1120.41 603.36 1122.21 609.9 1122.21 617.82C1122.21 627.42 1119.33 635.88 1113.57 643.2C1107.81 650.4 1099.71 656.04 1089.27 660.12C1078.95 664.08 1066.83 666.06 1052.91 666.06C1038.63 666.06 1026.09 664.08 1015.29 660.12C1004.49 656.16 996.027 650.64 989.907 643.56C983.787 636.36 980.607 628.08 980.367 618.72ZM1177.29 546.18H1219.23V663H1177.29V546.18ZM1127.25 528H1269.27V565.26H1127.25V528ZM1439.08 586.32H1486.24C1491.52 586.32 1495.6 585.12 1498.48 582.72C1501.48 580.32 1502.98 576.84 1502.98 572.28C1502.98 567.72 1501.48 564.24 1498.48 561.84C1495.6 559.44 1491.52 558.24 1486.24 558.24H1433.14L1452.04 538.8V663H1410.1V528H1492.54C1502.98 528 1512.16 529.86 1520.08 533.58C1528 537.3 1534.18 542.46 1538.62 549.06C1543.06 555.66 1545.28 563.4 1545.28 572.28C1545.28 580.92 1543.06 588.6 1538.62 595.32C1534.18 601.92 1528 607.08 1520.08 610.8C1512.16 614.4 1502.98 616.2 1492.54 616.2H1439.08V586.32ZM1457.08 599.82H1503.7L1550.14 663H1502.08L1457.08 599.82ZM1605.56 663V596.76H1647.5V663H1605.56ZM1542.38 528H1588.46L1635.44 588.12H1617.44L1664.24 528H1710.32L1639.94 617.82L1612.94 618.36L1542.38 528Z" fill="white"/>
<path d="M798.341 420.8L802.141 412.4C813.474 412.667 822.941 414.467 830.541 417.8C838.141 421 843.807 425.467 847.541 431.2C851.274 436.933 853.141 443.667 853.141 451.4C853.141 459.533 851.274 466.867 847.541 473.4C843.941 479.8 838.407 484.867 830.941 488.6C823.474 492.2 814.207 494 803.141 494H688.941L700.341 417L688.941 344H798.941C812.807 344 823.607 347.267 831.341 353.8C839.207 360.2 843.141 369.133 843.141 380.6C843.141 387 841.674 393.067 838.741 398.8C835.941 404.533 831.207 409.4 824.541 413.4C818.007 417.267 809.274 419.733 798.341 420.8ZM734.541 483.6L716.741 462.4H789.341C794.541 462.4 798.607 461.133 801.541 458.6C804.474 455.933 805.941 452.267 805.941 447.6C805.941 443.2 804.407 439.6 801.341 436.8C798.274 433.867 793.807 432.4 787.941 432.4H727.541V401.6H781.341C785.474 401.6 788.941 400.333 791.741 397.8C794.541 395.267 795.941 391.933 795.941 387.8C795.941 384.333 794.674 381.467 792.141 379.2C789.741 376.8 786.274 375.6 781.741 375.6H716.941L734.541 354.4L744.741 417L734.541 483.6ZM916.647 426C916.647 432.267 917.78 437.6 920.047 442C922.314 446.4 925.714 449.867 930.247 452.4C934.78 454.8 940.447 456 947.247 456C954.314 456 960.114 454.8 964.647 452.4C969.18 450 972.514 446.6 974.647 442.2C976.914 437.667 978.047 432.267 978.047 426V344H1024.65V428.6C1024.65 442.333 1021.45 454.4 1015.05 464.8C1008.65 475.067 999.647 483.067 988.047 488.8C976.447 494.533 962.847 497.4 947.247 497.4C931.914 497.4 918.447 494.533 906.847 488.8C895.247 483.067 886.18 475.067 879.647 464.8C873.247 454.4 870.047 442.333 870.047 428.6V344H916.647V426ZM1126 344C1144 344 1159.74 347.133 1173.2 353.4C1186.8 359.533 1197.34 368.2 1204.8 379.4C1212.4 390.6 1216.2 403.8 1216.2 419C1216.2 434.067 1212.4 447.267 1204.8 458.6C1197.34 469.8 1186.8 478.533 1173.2 484.8C1159.74 490.933 1144 494 1126 494H1048.8V344H1126ZM1095 473.8L1073.6 452.6H1129.6C1137.74 452.6 1144.74 451.267 1150.6 448.6C1156.6 445.8 1161.2 441.867 1164.4 436.8C1167.6 431.733 1169.2 425.8 1169.2 419C1169.2 412.067 1167.6 406.133 1164.4 401.2C1161.2 396.133 1156.6 392.267 1150.6 389.6C1144.74 386.8 1137.74 385.4 1129.6 385.4H1073.6L1095 364.2V473.8ZM1390.71 429.2C1390.31 438 1388.51 446.533 1385.31 454.8C1382.11 462.933 1377.45 470.267 1371.31 476.8C1365.18 483.2 1357.45 488.267 1348.11 492C1338.78 495.6 1327.85 497.4 1315.31 497.4C1303.58 497.4 1292.58 495.733 1282.31 492.4C1272.05 488.933 1262.98 483.933 1255.11 477.4C1247.25 470.733 1241.05 462.533 1236.51 452.8C1232.11 443.067 1229.91 431.8 1229.91 419C1229.91 406.2 1232.11 394.933 1236.51 385.2C1241.05 375.467 1247.31 367.333 1255.31 360.8C1263.45 354.133 1272.78 349.133 1283.31 345.8C1293.98 342.333 1305.45 340.6 1317.71 340.6C1334.65 340.6 1349.18 343.133 1361.31 348.2C1373.58 353.267 1383.45 360.267 1390.91 369.2C1398.38 378.133 1403.18 388.4 1405.31 400H1358.51C1357.31 395.6 1354.78 391.867 1350.91 388.8C1347.18 385.6 1342.51 383.2 1336.91 381.6C1331.31 379.867 1325.05 379 1318.11 379C1309.58 379 1302.18 380.467 1295.91 383.4C1289.78 386.333 1285.05 390.733 1281.71 396.6C1278.38 402.467 1276.71 409.933 1276.71 419C1276.71 428.067 1278.51 435.667 1282.11 441.8C1285.85 447.933 1291.11 452.533 1297.91 455.6C1304.85 458.667 1312.98 460.2 1322.31 460.2C1331.38 460.2 1339.38 459 1346.31 456.6C1353.38 454.2 1359.05 450.667 1363.31 446C1367.58 441.333 1370.11 435.533 1370.91 428.6L1390.71 429.2ZM1325.11 443.2V414.2H1406.71V494H1374.11L1367.31 435.6L1375.91 443.2H1325.11ZM1560.86 402.6V435.4H1449.46V402.6H1560.86ZM1481.26 419L1471.86 477L1453.66 456.8H1567.86V494H1425.66L1436.86 419L1425.66 344H1566.86V381.2H1453.66L1471.86 361L1481.26 419ZM1635.64 364.2H1682.24V494H1635.64V364.2ZM1580.04 344H1737.84V385.4H1580.04V344Z" fill="white"/>
<path d="M1387 601.66C1393.67 597.811 1393.67 588.189 1387 584.34L1312 541.038C1305.33 537.189 1297 542.001 1297 549.699V636.301C1297 643.999 1305.33 648.811 1312 644.962L1387 601.66Z" fill="white"/>
<path d="M1628.88 734.284C1881.94 680.591 1881.94 319.409 1628.88 265.716L966.961 125.267C817.998 93.6594 677.75 207.272 677.75 359.551V640.449C677.75 792.728 817.998 906.341 966.961 874.733L1628.88 734.284Z" stroke="white" stroke-width="5"/>
</svg>
