<svg width="2721" height="1000" viewBox="0 0 2721 1000" fill="none" xmlns="http://www.w3.org/2000/svg">
<path d="M771.261 685.72L765.901 686.84V639H783.981V699H760.621L728.381 651.16L733.661 650.04V699H715.661V639H739.741L771.261 685.72ZM825.213 639C832.413 639 838.706 640.253 844.093 642.76C849.533 645.213 853.746 648.68 856.733 653.16C859.773 657.64 861.293 662.92 861.293 669C861.293 675.027 859.773 680.307 856.733 684.84C853.746 689.32 849.533 692.813 844.093 695.32C838.706 697.773 832.413 699 825.213 699H794.333V639H825.213ZM812.813 690.92L804.253 682.44H826.653C829.906 682.44 832.706 681.907 835.053 680.84C837.453 679.72 839.293 678.147 840.573 676.12C841.853 674.093 842.493 671.72 842.493 669C842.493 666.227 841.853 663.853 840.573 661.88C839.293 659.853 837.453 658.307 835.053 657.24C832.706 656.12 829.906 655.56 826.653 655.56H804.253L812.813 647.08V690.92ZM869.177 639H887.817V699H869.177V639ZM931.761 700.36C924.561 700.36 918.241 699.053 912.801 696.44C907.414 693.827 903.201 690.173 900.161 685.48C897.174 680.787 895.681 675.293 895.681 669C895.681 662.707 897.174 657.213 900.161 652.52C903.201 647.827 907.414 644.173 912.801 641.56C918.241 638.947 924.561 637.64 931.761 637.64C938.961 637.64 945.254 638.947 950.641 641.56C956.081 644.173 960.294 647.827 963.281 652.52C966.321 657.213 967.841 662.707 967.841 669C967.841 675.293 966.321 680.787 963.281 685.48C960.294 690.173 956.081 693.827 950.641 696.44C945.254 699.053 938.961 700.36 931.761 700.36ZM931.761 683.8C935.334 683.8 938.401 683.213 940.961 682.04C943.574 680.813 945.574 679.107 946.961 676.92C948.348 674.68 949.041 672.04 949.041 669C949.041 665.96 948.348 663.347 946.961 661.16C945.574 658.92 943.574 657.213 940.961 656.04C938.401 654.813 935.334 654.2 931.761 654.2C928.188 654.2 925.094 654.813 922.481 656.04C919.921 657.213 917.948 658.92 916.561 661.16C915.174 663.347 914.481 665.96 914.481 669C914.481 672.04 915.174 674.68 916.561 676.92C917.948 679.107 919.921 680.813 922.481 682.04C925.094 683.213 928.188 683.8 931.761 683.8Z" fill="white"/>
<path d="M999.367 668.72H1041.85C1042.33 671.84 1043.83 674.6 1046.35 677C1048.99 679.28 1052.53 681.08 1056.97 682.4C1061.41 683.6 1066.63 684.2 1072.63 684.2C1080.91 684.2 1087.33 683.24 1091.89 681.32C1096.57 679.4 1098.91 676.46 1098.91 672.5C1098.91 669.74 1097.59 667.52 1094.95 665.84C1092.31 664.04 1087.09 662.84 1079.29 662.24L1055.53 660.26C1036.09 658.82 1021.99 654.62 1013.23 647.66C1004.59 640.58 1000.27 631.1 1000.27 619.22C1000.27 609.5 1003.09 601.4 1008.73 594.92C1014.37 588.32 1022.23 583.34 1032.31 579.98C1042.39 576.62 1054.27 574.94 1067.95 574.94C1081.15 574.94 1092.85 576.8 1103.05 580.52C1113.37 584.24 1121.53 589.52 1127.53 596.36C1133.65 603.08 1137.01 610.94 1137.61 619.94H1095.13C1094.65 617.3 1093.27 615.02 1090.99 613.1C1088.83 611.06 1085.71 609.5 1081.63 608.42C1077.55 607.34 1072.69 606.8 1067.05 606.8C1059.61 606.8 1053.67 607.7 1049.23 609.5C1044.91 611.3 1042.75 614 1042.75 617.6C1042.75 620.24 1044.01 622.4 1046.53 624.08C1049.17 625.76 1053.97 626.9 1060.93 627.5L1087.03 629.66C1099.99 630.62 1110.43 632.66 1118.35 635.78C1126.39 638.78 1132.21 642.92 1135.81 648.2C1139.41 653.36 1141.21 659.9 1141.21 667.82C1141.21 677.42 1138.33 685.88 1132.57 693.2C1126.81 700.4 1118.71 706.04 1108.27 710.12C1097.95 714.08 1085.83 716.06 1071.91 716.06C1057.63 716.06 1045.09 714.08 1034.29 710.12C1023.49 706.16 1015.03 700.64 1008.91 693.56C1002.79 686.36 999.607 678.08 999.367 668.72ZM1196.29 596.18H1238.23V713H1196.29V596.18ZM1146.25 578H1288.27V615.26H1146.25V578ZM1458.08 636.32H1505.24C1510.52 636.32 1514.6 635.12 1517.48 632.72C1520.48 630.32 1521.98 626.84 1521.98 622.28C1521.98 617.72 1520.48 614.24 1517.48 611.84C1514.6 609.44 1510.52 608.24 1505.24 608.24H1452.14L1471.04 588.8V713H1429.1V578H1511.54C1521.98 578 1531.16 579.86 1539.08 583.58C1547 587.3 1553.18 592.46 1557.62 599.06C1562.06 605.66 1564.28 613.4 1564.28 622.28C1564.28 630.92 1562.06 638.6 1557.62 645.32C1553.18 651.92 1547 657.08 1539.08 660.8C1531.16 664.4 1521.98 666.2 1511.54 666.2H1458.08V636.32ZM1476.08 649.82H1522.7L1569.14 713H1521.08L1476.08 649.82ZM1624.56 713V646.76H1666.5V713H1624.56ZM1561.38 578H1607.46L1654.44 638.12H1636.44L1683.24 578H1729.32L1658.94 667.82L1631.94 668.36L1561.38 578Z" fill="white"/>
<path d="M802.341 401.8L806.141 393.4C817.474 393.667 826.941 395.467 834.541 398.8C842.141 402 847.807 406.467 851.541 412.2C855.274 417.933 857.141 424.667 857.141 432.4C857.141 440.533 855.274 447.867 851.541 454.4C847.941 460.8 842.407 465.867 834.941 469.6C827.474 473.2 818.207 475 807.141 475H692.941L704.341 398L692.941 325H802.941C816.807 325 827.607 328.267 835.341 334.8C843.207 341.2 847.141 350.133 847.141 361.6C847.141 368 845.674 374.067 842.741 379.8C839.941 385.533 835.207 390.4 828.541 394.4C822.007 398.267 813.274 400.733 802.341 401.8ZM738.541 464.6L720.741 443.4H793.341C798.541 443.4 802.607 442.133 805.541 439.6C808.474 436.933 809.941 433.267 809.941 428.6C809.941 424.2 808.407 420.6 805.341 417.8C802.274 414.867 797.807 413.4 791.941 413.4H731.541V382.6H785.341C789.474 382.6 792.941 381.333 795.741 378.8C798.541 376.267 799.941 372.933 799.941 368.8C799.941 365.333 798.674 362.467 796.141 360.2C793.741 357.8 790.274 356.6 785.741 356.6H720.941L738.541 335.4L748.741 398L738.541 464.6ZM920.647 407C920.647 413.267 921.78 418.6 924.047 423C926.314 427.4 929.714 430.867 934.247 433.4C938.78 435.8 944.447 437 951.247 437C958.314 437 964.114 435.8 968.647 433.4C973.18 431 976.514 427.6 978.647 423.2C980.914 418.667 982.047 413.267 982.047 407V325H1028.65V409.6C1028.65 423.333 1025.45 435.4 1019.05 445.8C1012.65 456.067 1003.65 464.067 992.047 469.8C980.447 475.533 966.847 478.4 951.247 478.4C935.914 478.4 922.447 475.533 910.847 469.8C899.247 464.067 890.18 456.067 883.647 445.8C877.247 435.4 874.047 423.333 874.047 409.6V325H920.647V407ZM1130 325C1148 325 1163.74 328.133 1177.2 334.4C1190.8 340.533 1201.34 349.2 1208.8 360.4C1216.4 371.6 1220.2 384.8 1220.2 400C1220.2 415.067 1216.4 428.267 1208.8 439.6C1201.34 450.8 1190.8 459.533 1177.2 465.8C1163.74 471.933 1148 475 1130 475H1052.8V325H1130ZM1099 454.8L1077.6 433.6H1133.6C1141.74 433.6 1148.74 432.267 1154.6 429.6C1160.6 426.8 1165.2 422.867 1168.4 417.8C1171.6 412.733 1173.2 406.8 1173.2 400C1173.2 393.067 1171.6 387.133 1168.4 382.2C1165.2 377.133 1160.6 373.267 1154.6 370.6C1148.74 367.8 1141.74 366.4 1133.6 366.4H1077.6L1099 345.2V454.8ZM1394.71 410.2C1394.31 419 1392.51 427.533 1389.31 435.8C1386.11 443.933 1381.45 451.267 1375.31 457.8C1369.18 464.2 1361.45 469.267 1352.11 473C1342.78 476.6 1331.85 478.4 1319.31 478.4C1307.58 478.4 1296.58 476.733 1286.31 473.4C1276.05 469.933 1266.98 464.933 1259.11 458.4C1251.25 451.733 1245.05 443.533 1240.51 433.8C1236.11 424.067 1233.91 412.8 1233.91 400C1233.91 387.2 1236.11 375.933 1240.51 366.2C1245.05 356.467 1251.31 348.333 1259.31 341.8C1267.45 335.133 1276.78 330.133 1287.31 326.8C1297.98 323.333 1309.45 321.6 1321.71 321.6C1338.65 321.6 1353.18 324.133 1365.31 329.2C1377.58 334.267 1387.45 341.267 1394.91 350.2C1402.38 359.133 1407.18 369.4 1409.31 381H1362.51C1361.31 376.6 1358.78 372.867 1354.91 369.8C1351.18 366.6 1346.51 364.2 1340.91 362.6C1335.31 360.867 1329.05 360 1322.11 360C1313.58 360 1306.18 361.467 1299.91 364.4C1293.78 367.333 1289.05 371.733 1285.71 377.6C1282.38 383.467 1280.71 390.933 1280.71 400C1280.71 409.067 1282.51 416.667 1286.11 422.8C1289.85 428.933 1295.11 433.533 1301.91 436.6C1308.85 439.667 1316.98 441.2 1326.31 441.2C1335.38 441.2 1343.38 440 1350.31 437.6C1357.38 435.2 1363.05 431.667 1367.31 427C1371.58 422.333 1374.11 416.533 1374.91 409.6L1394.71 410.2ZM1329.11 424.2V395.2H1410.71V475H1378.11L1371.31 416.6L1379.91 424.2H1329.11ZM1564.86 383.6V416.4H1453.46V383.6H1564.86ZM1485.26 400L1475.86 458L1457.66 437.8H1571.86V475H1429.66L1440.86 400L1429.66 325H1570.86V362.2H1457.66L1475.86 342L1485.26 400ZM1639.64 345.2H1686.24V475H1639.64V345.2ZM1584.04 325H1741.84V366.4H1584.04V325Z" fill="white"/>
<path d="M1400 656.66C1406.67 652.811 1406.67 643.189 1400 639.34L1325 596.038C1318.33 592.189 1310 597.001 1310 604.699V691.301C1310 698.999 1318.33 703.811 1325 699.962L1400 656.66Z" fill="white"/>
</svg>
