<svg width="72" height="30" viewBox="0 0 72 30" fill="none" xmlns="http://www.w3.org/2000/svg">
<rect width="72" height="30" fill="#F1F1F1"/>
<path d="M22.6131 11.82L21.5631 11.565V20.25H25.3131V9H20.4681L14.8881 17.67L15.9381 17.925V9H12.1881V20.25H17.1831L22.6131 11.82ZM33.0848 20.25C34.4548 20.25 35.6498 20.015 36.6698 19.545C37.6998 19.085 38.4998 18.435 39.0698 17.595C39.6398 16.755 39.9248 15.765 39.9248 14.625C39.9248 13.495 39.6398 12.505 39.0698 11.655C38.4998 10.815 37.6998 10.16 36.6698 9.69C35.6498 9.23 34.4548 9 33.0848 9H27.1148V20.25H33.0848ZM30.9548 10.725L29.2148 12.45H33.3848C33.9348 12.45 34.4048 12.535 34.7948 12.705C35.1948 12.885 35.4998 13.135 35.7098 13.455C35.9198 13.785 36.0248 14.175 36.0248 14.625C36.0248 15.085 35.9198 15.475 35.7098 15.795C35.4998 16.115 35.1948 16.36 34.7948 16.53C34.4048 16.71 33.9348 16.8 33.3848 16.8H29.2148L30.9548 18.525V10.725ZM41.3092 20.25H45.1792V9H41.3092V20.25ZM53.3981 8.73C52.0281 8.73 50.8281 8.975 49.7981 9.465C48.7781 9.955 47.9831 10.64 47.4131 11.52C46.8431 12.41 46.5581 13.445 46.5581 14.625C46.5581 15.805 46.8431 16.835 47.4131 17.715C47.9831 18.605 48.7781 19.295 49.7981 19.785C50.8281 20.275 52.0281 20.52 53.3981 20.52C54.7681 20.52 55.9631 20.275 56.9831 19.785C58.0131 19.295 58.8131 18.605 59.3831 17.715C59.9531 16.835 60.2381 15.805 60.2381 14.625C60.2381 13.445 59.9531 12.41 59.3831 11.52C58.8131 10.64 58.0131 9.955 56.9831 9.465C55.9631 8.975 54.7681 8.73 53.3981 8.73ZM53.3981 12.18C54.0081 12.18 54.5331 12.275 54.9731 12.465C55.4131 12.665 55.7481 12.945 55.9781 13.305C56.2181 13.675 56.3381 14.115 56.3381 14.625C56.3381 15.135 56.2181 15.57 55.9781 15.93C55.7481 16.3 55.4131 16.58 54.9731 16.77C54.5331 16.97 54.0081 17.07 53.3981 17.07C52.7881 17.07 52.2631 16.97 51.8231 16.77C51.3831 16.58 51.0431 16.3 50.8031 15.93C50.5731 15.57 50.4581 15.135 50.4581 14.625C50.4581 14.115 50.5731 13.675 50.8031 13.305C51.0431 12.945 51.3831 12.665 51.8231 12.465C52.2631 12.275 52.7881 12.18 53.3981 12.18Z" fill="#D0D0D0"/>
</svg>
