<svg width="1136" height="434" viewBox="0 0 1136 434" fill="none" xmlns="http://www.w3.org/2000/svg">
<path d="M191.335 320.74H187.825V254.5H192.685V322H186.115L130.585 255.76H134.095V322H129.235V254.5H135.805L191.335 320.74ZM237.452 254.5C244.832 254.5 251.312 255.94 256.892 258.82C262.472 261.64 266.822 265.6 269.942 270.7C273.062 275.74 274.622 281.59 274.622 288.25C274.622 294.91 273.062 300.79 269.942 305.89C266.822 310.93 262.472 314.89 256.892 317.77C251.312 320.59 244.832 322 237.452 322H210.182V254.5H237.452ZM215.222 321.64L211.082 317.59H237.452C243.752 317.59 249.302 316.36 254.102 313.9C258.902 311.38 262.652 307.93 265.352 303.55C268.052 299.11 269.402 294.01 269.402 288.25C269.402 282.43 268.052 277.33 265.352 272.95C262.652 268.57 258.902 265.15 254.102 262.69C249.302 260.17 243.752 258.91 237.452 258.91H211.082L215.222 254.86V321.64ZM288.053 254.5H293.093V322H288.053V254.5ZM343.673 323.08C336.353 323.08 329.873 321.61 324.233 318.67C318.653 315.73 314.303 311.65 311.183 306.43C308.063 301.15 306.503 295.06 306.503 288.16C306.503 281.32 308.063 275.29 311.183 270.07C314.303 264.85 318.653 260.77 324.233 257.83C329.873 254.89 336.383 253.42 343.763 253.42C351.083 253.42 357.533 254.89 363.113 257.83C368.693 260.77 373.043 264.85 376.163 270.07C379.283 275.29 380.843 281.32 380.843 288.16C380.843 295.06 379.283 301.15 376.163 306.43C373.043 311.65 368.693 315.73 363.113 318.67C357.533 321.61 351.053 323.08 343.673 323.08ZM343.673 318.4C350.153 318.4 355.793 317.17 360.593 314.71C365.393 312.19 369.083 308.68 371.663 304.18C374.303 299.62 375.623 294.31 375.623 288.25C375.623 282.13 374.303 276.82 371.663 272.32C369.083 267.82 365.393 264.34 360.593 261.88C355.793 259.36 350.153 258.1 343.673 258.1C337.193 258.1 331.553 259.36 326.753 261.88C322.013 264.34 318.323 267.82 315.683 272.32C313.043 276.82 311.723 282.13 311.723 288.25C311.723 294.31 313.043 299.62 315.683 304.18C318.323 308.68 322.013 312.19 326.753 314.71C331.553 317.17 337.193 318.4 343.673 318.4Z" fill="white"/>
<path d="M404.888 287.56H437.928C438.301 289.987 439.468 292.133 441.428 294C443.481 295.773 446.234 297.173 449.688 298.2C453.141 299.133 457.201 299.6 461.868 299.6C468.308 299.6 473.301 298.853 476.848 297.36C480.488 295.867 482.308 293.58 482.308 290.5C482.308 288.353 481.281 286.627 479.228 285.32C477.174 283.92 473.114 282.987 467.048 282.52L448.568 280.98C433.448 279.86 422.481 276.593 415.668 271.18C408.948 265.673 405.588 258.3 405.588 249.06C405.588 241.5 407.781 235.2 412.168 230.16C416.554 225.027 422.668 221.153 430.508 218.54C438.348 215.927 447.588 214.62 458.228 214.62C468.494 214.62 477.594 216.067 485.528 218.96C493.554 221.853 499.901 225.96 504.568 231.28C509.328 236.507 511.941 242.62 512.408 249.62H479.368C478.994 247.567 477.921 245.793 476.148 244.3C474.468 242.713 472.041 241.5 468.868 240.66C465.694 239.82 461.914 239.4 457.528 239.4C451.741 239.4 447.121 240.1 443.668 241.5C440.308 242.9 438.628 245 438.628 247.8C438.628 249.853 439.608 251.533 441.568 252.84C443.621 254.147 447.354 255.033 452.768 255.5L473.068 257.18C483.148 257.927 491.268 259.513 497.428 261.94C503.681 264.273 508.208 267.493 511.008 271.6C513.808 275.613 515.208 280.7 515.208 286.86C515.208 294.327 512.968 300.907 508.488 306.6C504.008 312.2 497.708 316.587 489.588 319.76C481.561 322.84 472.134 324.38 461.308 324.38C450.201 324.38 440.448 322.84 432.048 319.76C423.648 316.68 417.068 312.387 412.308 306.88C407.548 301.28 405.074 294.84 404.888 287.56ZM558.052 231.14H590.672V322H558.052V231.14ZM519.132 217H629.592V245.98H519.132V217ZM795.57 262.36H832.25C836.356 262.36 839.53 261.427 841.77 259.56C844.103 257.693 845.27 254.987 845.27 251.44C845.27 247.893 844.103 245.187 841.77 243.32C839.53 241.453 836.356 240.52 832.25 240.52H790.95L805.65 225.4V322H773.03V217H837.15C845.27 217 852.41 218.447 858.57 221.34C864.73 224.233 869.536 228.247 872.99 233.38C876.443 238.513 878.17 244.533 878.17 251.44C878.17 258.16 876.443 264.133 872.99 269.36C869.536 274.493 864.73 278.507 858.57 281.4C852.41 284.2 845.27 285.6 837.15 285.6H795.57V262.36ZM809.57 272.86H845.83L881.95 322H844.57L809.57 272.86ZM925.052 322V270.48H957.672V322H925.052ZM875.912 217H911.752L948.292 263.76H934.292L970.692 217H1006.53L951.792 286.86L930.792 287.28L875.912 217Z" fill="white"/>
<path d="M770 271L680 322.962V219.038L770 271Z" fill="white"/>
<path d="M715 271L647.5 309.971V232.029L715 271Z" fill="white"/>
<path d="M219.303 106.146L222.514 99.048C232.091 99.2733 240.09 100.794 246.512 103.611C252.934 106.315 257.722 110.089 260.877 114.934C264.032 119.779 265.609 125.468 265.609 132.003C265.609 138.876 264.032 145.072 260.877 150.593C257.835 156.001 253.159 160.282 246.85 163.437C240.54 166.479 232.71 168 223.359 168H126.86L136.493 102.935L126.86 41.25H219.81C231.527 41.25 240.653 44.0103 247.188 49.531C253.835 54.939 257.159 62.4877 257.159 72.177C257.159 77.585 255.92 82.7113 253.441 87.556C251.075 92.4007 247.075 96.513 241.442 99.893C235.921 103.16 228.542 105.245 219.303 106.146ZM165.392 159.212L150.351 141.298H211.698C216.092 141.298 219.528 140.228 222.007 138.087C224.485 135.834 225.725 132.735 225.725 128.792C225.725 125.074 224.429 122.032 221.838 119.666C219.246 117.187 215.472 115.948 210.515 115.948H159.477V89.922H204.938C208.43 89.922 211.36 88.8517 213.726 86.711C216.092 84.5703 217.275 81.7537 217.275 78.261C217.275 75.3317 216.205 72.9093 214.064 70.994C212.036 68.966 209.107 67.952 205.276 67.952H150.52L165.392 50.038L174.011 102.935L165.392 159.212ZM319.272 110.54C319.272 115.835 320.229 120.342 322.145 124.06C324.06 127.778 326.933 130.707 330.764 132.848C334.594 134.876 339.383 135.89 345.129 135.89C351.1 135.89 356.001 134.876 359.832 132.848C363.662 130.82 366.479 127.947 368.282 124.229C370.197 120.398 371.155 115.835 371.155 110.54V41.25H410.532V112.737C410.532 124.342 407.828 134.538 402.42 143.326C397.012 152.001 389.407 158.761 379.605 163.606C369.803 168.451 358.311 170.873 345.129 170.873C332.172 170.873 320.793 168.451 310.991 163.606C301.189 158.761 293.527 152.001 288.007 143.326C282.599 134.538 279.895 124.342 279.895 112.737V41.25H319.272V110.54ZM496.179 41.25C511.389 41.25 524.684 43.8977 536.063 49.193C547.555 54.3757 556.456 61.699 562.765 71.163C569.187 80.627 572.398 91.781 572.398 104.625C572.398 117.356 569.187 128.51 562.765 138.087C556.456 147.551 547.555 154.931 536.063 160.226C524.684 165.409 511.389 168 496.179 168H430.945V41.25H496.179ZM469.984 150.931L451.901 133.017H499.221C506.094 133.017 512.009 131.89 516.966 129.637C522.036 127.271 525.923 123.947 528.627 119.666C531.331 115.385 532.683 110.371 532.683 104.625C532.683 98.7663 531.331 93.7527 528.627 89.584C525.923 85.3027 522.036 82.0353 516.966 79.782C512.009 77.416 506.094 76.233 499.221 76.233H451.901L469.984 58.319V150.931ZM719.858 113.244C719.52 120.68 717.999 127.891 715.295 134.876C712.591 141.749 708.648 147.945 703.465 153.466C698.283 158.874 691.748 163.155 683.861 166.31C675.975 169.352 666.736 170.873 656.145 170.873C646.231 170.873 636.936 169.465 628.26 166.648C619.585 163.719 611.924 159.494 605.276 153.973C598.629 148.34 593.39 141.411 589.559 133.186C585.841 124.961 583.982 115.441 583.982 104.625C583.982 93.809 585.841 84.2887 589.559 76.064C593.39 67.8393 598.685 60.9667 605.445 55.446C612.318 49.8127 620.205 45.5877 629.105 42.771C638.119 39.8417 647.808 38.377 658.173 38.377C672.482 38.377 684.763 40.5177 695.015 44.799C705.381 49.0803 713.718 54.9953 720.027 62.544C726.337 70.0927 730.393 78.768 732.195 88.57H692.649C691.635 84.852 689.495 81.6973 686.227 79.106C683.073 76.402 679.129 74.374 674.397 73.022C669.665 71.5573 664.37 70.825 658.511 70.825C651.301 70.825 645.048 72.0643 639.752 74.543C634.57 77.0217 630.57 80.7397 627.753 85.697C624.937 90.6543 623.528 96.9637 623.528 104.625C623.528 112.286 625.049 118.708 628.091 123.891C631.246 129.074 635.696 132.961 641.442 135.552C647.301 138.143 654.174 139.439 662.06 139.439C669.722 139.439 676.482 138.425 682.34 136.397C688.312 134.369 693.1 131.383 696.705 127.44C700.311 123.497 702.451 118.596 703.127 112.737L719.858 113.244ZM664.426 125.074V100.569H733.378V168H705.831L700.085 118.652L707.352 125.074H664.426ZM863.631 90.767V118.483H769.498V90.767H863.631ZM796.369 104.625L788.426 153.635L773.047 136.566H869.546V168H749.387L758.851 104.625L749.387 41.25H868.701V72.684H773.047L788.426 55.615L796.369 104.625ZM926.82 58.319H966.197V168H926.82V58.319ZM879.838 41.25H1013.18V76.233H879.838V41.25Z" fill="white"/>
</svg>
