<svg width="2600" height="1350" viewBox="0 0 2600 1350" fill="none" xmlns="http://www.w3.org/2000/svg">
<g clip-path="url(#clip0_14_64)">
<path d="M609.825 813.8L616.225 799C639.692 799.533 658.892 803.133 673.825 809.8C689.025 816.467 700.225 825.667 707.425 837.4C714.892 848.867 718.625 862.2 718.625 877.4C718.625 893.4 714.892 907.8 707.425 920.6C699.958 933.133 688.758 943 673.825 950.2C659.158 957.4 640.758 961 618.625 961H402.625L425.825 807L402.625 661H611.025C638.758 661 660.225 667.533 675.425 680.6C690.892 693.4 698.625 711.133 698.625 733.8C698.625 746.333 695.692 758.333 689.825 769.8C683.958 781.267 674.625 791 661.825 799C649.025 806.733 631.692 811.667 609.825 813.8ZM477.025 942.6L448.225 907H600.625C613.692 907 623.825 903.933 631.025 897.8C638.492 891.4 642.225 882.467 642.225 871C642.225 859.533 638.092 850.467 629.825 843.8C621.825 836.867 609.825 833.4 593.825 833.4H469.025V780.6H584.225C595.158 780.6 604.225 777.533 611.425 771.4C618.625 765 622.225 756.333 622.225 745.4C622.225 736.6 619.158 729.4 613.025 723.8C606.892 717.933 597.958 715 586.225 715H448.625L477.025 679.4L498.225 807L477.025 942.6ZM833.034 828.2C833.034 842.867 835.834 855.667 841.434 866.6C847.301 877.267 855.701 885.533 866.634 891.4C877.568 897 891.034 899.8 907.034 899.8C923.301 899.8 936.901 897 947.834 891.4C958.768 885.533 967.034 877.267 972.634 866.6C978.234 855.667 981.034 842.867 981.034 828.2V661H1056.23V831.8C1056.23 859 1049.97 882.733 1037.43 903C1025.17 923.267 1007.83 939.133 985.434 950.6C963.034 961.8 936.901 967.4 907.034 967.4C877.168 967.4 851.034 961.8 828.634 950.6C806.234 939.133 788.768 923.267 776.234 903C763.701 882.733 757.434 859 757.434 831.8V661H833.034V828.2ZM1257.44 661C1292.64 661 1323.44 667.267 1349.84 679.8C1376.24 692.333 1396.78 709.8 1411.44 732.2C1426.38 754.6 1433.84 780.867 1433.84 811C1433.84 840.867 1426.38 867.133 1411.44 889.8C1396.78 912.2 1376.24 929.667 1349.84 942.2C1323.44 954.733 1292.64 961 1257.44 961H1111.04V661H1257.44ZM1186.24 930.2L1149.44 894.2H1263.04C1282.24 894.2 1298.91 890.733 1313.04 883.8C1327.18 876.867 1338.11 867.267 1345.84 855C1353.58 842.467 1357.44 827.8 1357.44 811C1357.44 793.933 1353.58 779.267 1345.84 767C1338.11 754.733 1327.18 745.133 1313.04 738.2C1298.91 731.267 1282.24 727.8 1263.04 727.8H1149.44L1186.24 691.8V930.2ZM1783.83 831C1783.3 849.133 1779.7 866.467 1773.03 883C1766.36 899.267 1756.76 913.8 1744.23 926.6C1731.7 939.133 1716.23 949.133 1697.83 956.6C1679.43 963.8 1657.96 967.4 1633.43 967.4C1609.96 967.4 1587.96 963.933 1567.43 957C1547.16 950.067 1529.3 939.933 1513.83 926.6C1498.36 913 1486.36 896.6 1477.83 877.4C1469.3 857.933 1465.03 835.8 1465.03 811C1465.03 786.2 1469.3 764.2 1477.83 745C1486.63 725.533 1498.76 709.133 1514.23 695.8C1529.96 682.2 1548.23 671.933 1569.03 665C1590.1 658.067 1613.03 654.6 1637.83 654.6C1670.1 654.6 1698.1 659.667 1721.83 669.8C1745.83 679.933 1765.03 693.8 1779.43 711.4C1794.1 729 1803.43 749.267 1807.43 772.2H1731.03C1728.36 761 1722.76 751.4 1714.23 743.4C1705.7 735.133 1694.9 728.867 1681.83 724.6C1669.03 720.333 1654.36 718.2 1637.83 718.2C1617.83 718.2 1600.63 721.8 1586.23 729C1571.83 735.933 1560.63 746.333 1552.63 760.2C1544.63 773.8 1540.63 790.733 1540.63 811C1540.63 831.267 1544.76 848.467 1553.03 862.6C1561.56 876.733 1573.56 887.4 1589.03 894.6C1604.76 901.8 1623.16 905.4 1644.23 905.4C1664.76 905.4 1682.76 902.333 1698.23 896.2C1713.96 890.067 1726.36 881.267 1735.43 869.8C1744.76 858.333 1750.1 844.6 1751.43 828.6L1783.83 831ZM1653.03 861.4V807.8H1810.23V961H1756.23L1745.83 841L1761.03 861.4H1653.03ZM2114.23 783V839H1897.03V783H2114.23ZM1948.23 811L1928.23 935L1896.63 899.4H2127.03V961H1852.63L1875.83 811L1852.63 661H2125.03V722.6H1896.63L1928.23 687L1948.23 811ZM2267.56 694.2H2343.16V961H2267.56V694.2ZM2150.76 661H2459.96V727.8H2150.76V661Z" fill="black"/>
<path d="M827.686 1107.65L818.536 1109.3V1014.5H845.986V1127H810.286L741.736 1032.2L750.886 1030.55V1127H723.436V1014.5H760.186L827.686 1107.65ZM922.77 1014.5C935.97 1014.5 947.52 1016.85 957.42 1021.55C967.32 1026.25 975.02 1032.8 980.52 1041.2C986.12 1049.6 988.92 1059.45 988.92 1070.75C988.92 1081.95 986.12 1091.8 980.52 1100.3C975.02 1108.7 967.32 1115.25 957.42 1119.95C947.52 1124.65 935.97 1127 922.77 1127H867.87V1014.5H922.77ZM896.07 1115.45L882.27 1101.95H924.87C932.07 1101.95 938.32 1100.65 943.62 1098.05C948.92 1095.45 953.02 1091.85 955.92 1087.25C958.82 1082.55 960.27 1077.05 960.27 1070.75C960.27 1064.35 958.82 1058.85 955.92 1054.25C953.02 1049.65 948.92 1046.05 943.62 1043.45C938.32 1040.85 932.07 1039.55 924.87 1039.55H882.27L896.07 1026.05V1115.45ZM1005.57 1014.5H1033.92V1127H1005.57V1014.5ZM1116.86 1129.4C1103.66 1129.4 1092.06 1126.95 1082.06 1122.05C1072.16 1117.15 1064.46 1110.3 1058.96 1101.5C1053.46 1092.7 1050.71 1082.45 1050.71 1070.75C1050.71 1059.05 1053.46 1048.8 1058.96 1040C1064.46 1031.2 1072.16 1024.35 1082.06 1019.45C1092.06 1014.55 1103.66 1012.1 1116.86 1012.1C1130.06 1012.1 1141.61 1014.55 1151.51 1019.45C1161.51 1024.35 1169.26 1031.2 1174.76 1040C1180.36 1048.8 1183.16 1059.05 1183.16 1070.75C1183.16 1082.45 1180.36 1092.7 1174.76 1101.5C1169.26 1110.3 1161.51 1117.15 1151.51 1122.05C1141.61 1126.95 1130.06 1129.4 1116.86 1129.4ZM1116.86 1104.05C1124.66 1104.05 1131.36 1102.75 1136.96 1100.15C1142.56 1097.45 1146.86 1093.6 1149.86 1088.6C1152.96 1083.6 1154.51 1077.65 1154.51 1070.75C1154.51 1063.85 1152.96 1057.9 1149.86 1052.9C1146.86 1047.9 1142.56 1044.1 1136.96 1041.5C1131.36 1038.8 1124.66 1037.45 1116.86 1037.45C1109.16 1037.45 1102.51 1038.8 1096.91 1041.5C1091.31 1044.1 1086.96 1047.9 1083.86 1052.9C1080.76 1057.9 1079.21 1063.85 1079.21 1070.75C1079.21 1077.65 1080.76 1083.6 1083.86 1088.6C1086.96 1093.6 1091.31 1097.45 1096.91 1100.15C1102.51 1102.75 1109.16 1104.05 1116.86 1104.05Z" fill="black" fill-opacity="0.5"/>
<path d="M1229.55 1138.5H1286.85C1287.85 1145.3 1290.95 1151.3 1296.15 1156.5C1301.35 1161.7 1308.25 1165.7 1316.85 1168.5C1325.65 1171.3 1335.85 1172.7 1347.45 1172.7C1364.05 1172.7 1377.05 1170.4 1386.45 1165.8C1396.05 1161.2 1400.85 1154.7 1400.85 1146.3C1400.85 1139.9 1398.05 1135 1392.45 1131.6C1387.05 1128 1376.85 1125.4 1361.85 1123.8L1318.35 1119.3C1288.15 1116.3 1266.25 1109.3 1252.65 1098.3C1239.25 1087.3 1232.55 1072.3 1232.55 1053.3C1232.55 1038.3 1236.95 1025.5 1245.75 1014.9C1254.75 1004.3 1267.25 996.2 1283.25 990.6C1299.45 985 1318.35 982.2 1339.95 982.2C1361.35 982.2 1380.25 985.3 1396.65 991.5C1413.05 997.7 1426.15 1006.3 1435.95 1017.3C1445.75 1028.3 1451.05 1041.1 1451.85 1055.7H1394.55C1393.75 1049.7 1390.95 1044.6 1386.15 1040.4C1381.55 1036 1375.25 1032.6 1367.25 1030.2C1359.45 1027.6 1349.95 1026.3 1338.75 1026.3C1323.75 1026.3 1311.75 1028.5 1302.75 1032.9C1293.95 1037.1 1289.55 1043.2 1289.55 1051.2C1289.55 1057.2 1292.15 1061.9 1297.35 1065.3C1302.75 1068.7 1312.25 1071.2 1325.85 1072.8L1371.75 1077.9C1392.75 1080.1 1409.55 1083.6 1422.15 1088.4C1434.75 1093.2 1443.85 1099.8 1449.45 1108.2C1455.05 1116.6 1457.85 1127.2 1457.85 1140C1457.85 1155.4 1453.15 1168.9 1443.75 1180.5C1434.55 1191.9 1421.55 1200.8 1404.75 1207.2C1388.15 1213.6 1368.75 1216.8 1346.55 1216.8C1323.55 1216.8 1303.35 1213.5 1285.95 1206.9C1268.75 1200.3 1255.15 1191.2 1245.15 1179.6C1235.35 1167.8 1230.15 1154.1 1229.55 1138.5ZM1553.15 1011.9H1609.85V1212H1553.15V1011.9ZM1465.55 987H1697.45V1037.1H1465.55V987ZM1836.77 1216.8C1810.37 1216.8 1787.17 1211.9 1767.17 1202.1C1747.37 1192.3 1731.97 1178.6 1720.97 1161C1709.97 1143.4 1704.47 1122.9 1704.47 1099.5C1704.47 1076.1 1709.97 1055.6 1720.97 1038C1731.97 1020.4 1747.37 1006.7 1767.17 996.9C1787.17 987.1 1810.37 982.2 1836.77 982.2C1863.17 982.2 1886.27 987.1 1906.07 996.9C1926.07 1006.7 1941.57 1020.4 1952.57 1038C1963.77 1055.6 1969.37 1076.1 1969.37 1099.5C1969.37 1122.9 1963.77 1143.4 1952.57 1161C1941.57 1178.6 1926.07 1192.3 1906.07 1202.1C1886.27 1211.9 1863.17 1216.8 1836.77 1216.8ZM1836.77 1166.1C1852.37 1166.1 1865.77 1163.5 1876.97 1158.3C1888.17 1152.9 1896.77 1145.2 1902.77 1135.2C1908.97 1125.2 1912.07 1113.3 1912.07 1099.5C1912.07 1085.7 1908.97 1073.8 1902.77 1063.8C1896.77 1053.8 1888.17 1046.2 1876.97 1041C1865.77 1035.6 1852.37 1032.9 1836.77 1032.9C1821.37 1032.9 1808.07 1035.6 1796.87 1041C1785.67 1046.2 1776.97 1053.8 1770.77 1063.8C1764.57 1073.8 1761.47 1085.7 1761.47 1099.5C1761.47 1113.3 1764.57 1125.2 1770.77 1135.2C1776.97 1145.2 1785.67 1152.9 1796.87 1158.3C1808.07 1163.5 1821.37 1166.1 1836.77 1166.1ZM2042.25 1086H2126.55C2137.15 1086 2145.55 1083.6 2151.75 1078.8C2157.95 1073.8 2161.05 1066.9 2161.05 1058.1C2161.05 1049.3 2157.95 1042.5 2151.75 1037.7C2145.55 1032.7 2137.15 1030.2 2126.55 1030.2H2034.15L2059.65 1002.3V1212H2002.95V987H2134.05C2150.85 987 2165.55 990 2178.15 996C2190.75 1002 2200.55 1010.3 2207.55 1020.9C2214.55 1031.5 2218.05 1043.9 2218.05 1058.1C2218.05 1072.1 2214.55 1084.4 2207.55 1095C2200.55 1105.6 2190.75 1113.9 2178.15 1119.9C2165.55 1125.7 2150.85 1128.6 2134.05 1128.6H2042.25V1086ZM2078.55 1106.7H2142.45L2225.25 1212H2159.55L2078.55 1106.7ZM2323.14 1212V1103.1H2379.84V1212H2323.14ZM2217.54 987H2280.24L2364.24 1093.8H2338.14L2422.14 987H2484.84L2369.64 1133.4L2333.04 1134L2217.54 987ZM2489.78 1215C2483.78 1215 2478.28 1213.6 2473.28 1210.8C2468.48 1208 2464.68 1204.2 2461.88 1199.4C2459.08 1194.4 2457.68 1188.9 2457.68 1182.9C2457.68 1176.9 2459.08 1171.5 2461.88 1166.7C2464.68 1161.9 2468.48 1158.1 2473.28 1155.3C2478.28 1152.3 2483.78 1150.8 2489.78 1150.8C2495.78 1150.8 2501.18 1152.3 2505.98 1155.3C2510.78 1158.1 2514.58 1161.9 2517.38 1166.7C2520.18 1171.5 2521.58 1176.9 2521.58 1182.9C2521.58 1188.9 2520.18 1194.4 2517.38 1199.4C2514.58 1204.2 2510.78 1208 2505.98 1210.8C2501.18 1213.6 2495.78 1215 2489.78 1215Z" fill="black"/>
</g>
<defs>
<clipPath id="clip0_14_64">
<rect width="2600" height="1350" fill="white"/>
</clipPath>
</defs>
</svg>
