<svg width="1148" height="589" viewBox="0 0 1148 589" fill="none" xmlns="http://www.w3.org/2000/svg">
<path d="M363.227 448.8H410.427C410.961 452.267 412.627 455.333 415.427 458C418.361 460.533 422.294 462.533 427.227 464C432.161 465.333 437.961 466 444.627 466C453.827 466 460.961 464.933 466.027 462.8C471.227 460.667 473.827 457.4 473.827 453C473.827 449.933 472.361 447.467 469.427 445.6C466.494 443.6 460.694 442.267 452.027 441.6L425.627 439.4C404.027 437.8 388.361 433.133 378.627 425.4C369.027 417.533 364.227 407 364.227 393.8C364.227 383 367.361 374 373.627 366.8C379.894 359.467 388.627 353.933 399.827 350.2C411.027 346.467 424.227 344.6 439.427 344.6C454.094 344.6 467.094 346.667 478.427 350.8C489.894 354.933 498.961 360.8 505.627 368.4C512.427 375.867 516.161 384.6 516.827 394.6H469.627C469.094 391.667 467.561 389.133 465.027 387C462.627 384.733 459.161 383 454.627 381.8C450.094 380.6 444.694 380 438.427 380C430.161 380 423.561 381 418.627 383C413.827 385 411.427 388 411.427 392C411.427 394.933 412.827 397.333 415.627 399.2C418.561 401.067 423.894 402.333 431.627 403L460.627 405.4C475.027 406.467 486.627 408.733 495.427 412.2C504.361 415.533 510.827 420.133 514.827 426C518.827 431.733 520.827 439 520.827 447.8C520.827 458.467 517.627 467.867 511.227 476C504.827 484 495.827 490.267 484.227 494.8C472.761 499.2 459.294 501.4 443.827 501.4C427.961 501.4 414.027 499.2 402.027 494.8C390.027 490.4 380.627 484.267 373.827 476.4C367.027 468.4 363.494 459.2 363.227 448.8ZM528.592 425.1V407.28L549.112 397.92L567.112 366.96H590.512V394.86H632.272V425.1H590.512V450.84C590.512 457.8 591.832 462.72 594.472 465.6C597.232 468.48 602.572 469.92 610.492 469.92C615.412 469.92 619.792 469.56 623.632 468.84C627.472 468 630.952 466.98 634.072 465.78V496.2C630.232 497.4 625.372 498.48 619.492 499.44C613.612 500.52 607.432 501.06 600.952 501.06C589.192 501.06 579.472 499.26 571.792 495.66C564.232 492.06 558.532 486.9 554.692 480.18C550.972 473.46 549.112 465.54 549.112 456.42V425.1H528.592ZM707.793 501.06C694.473 501.06 682.773 498.78 672.693 494.22C662.613 489.66 654.753 483.3 649.113 475.14C643.473 466.86 640.653 457.32 640.653 446.52C640.653 435.48 643.473 425.88 649.113 417.72C654.753 409.44 662.613 403.08 672.693 398.64C682.773 394.08 694.533 391.8 707.973 391.8C721.293 391.8 732.993 394.08 743.073 398.64C753.153 403.08 760.953 409.44 766.473 417.72C772.113 425.88 774.933 435.48 774.933 446.52C774.933 457.32 772.113 466.86 766.473 475.14C760.953 483.3 753.153 489.66 743.073 494.22C732.993 498.78 721.233 501.06 707.793 501.06ZM707.973 470.82C713.373 470.82 717.933 469.86 721.653 467.94C725.493 466.02 728.373 463.26 730.293 459.66C732.333 455.94 733.353 451.56 733.353 446.52C733.353 441.36 732.333 436.98 730.293 433.38C728.373 429.66 725.493 426.84 721.653 424.92C717.933 423 713.373 422.04 707.973 422.04C702.573 422.04 697.953 423 694.113 424.92C690.273 426.84 687.333 429.66 685.293 433.38C683.373 436.98 682.413 441.3 682.413 446.34C682.413 451.5 683.373 455.94 685.293 459.66C687.333 463.26 690.273 466.02 694.113 467.94C697.953 469.86 702.573 470.82 707.973 470.82ZM783.555 394.86H825.675L831.795 431.4V498H790.575V430.14L783.555 394.86ZM878.775 392.88V427.98C874.935 427.26 871.395 426.78 868.155 426.54C865.035 426.18 862.155 426 859.515 426C854.595 426 850.035 426.96 845.835 428.88C841.635 430.68 838.215 433.86 835.575 438.42C833.055 442.86 831.795 449.04 831.795 456.96L824.235 447.6C825.315 440.16 826.755 433.14 828.555 426.54C830.475 419.82 833.055 413.88 836.295 408.72C839.535 403.44 843.555 399.3 848.355 396.3C853.275 393.3 859.275 391.8 866.355 391.8C868.275 391.8 870.255 391.92 872.295 392.16C874.335 392.28 876.495 392.52 878.775 392.88ZM927.795 530.76C919.635 530.76 912.435 529.74 906.195 527.7C900.075 525.78 894.015 522.66 888.015 518.34V490.26C894.015 494.1 899.595 496.86 904.755 498.54C909.915 500.22 915.555 501.06 921.675 501.06C926.715 501.06 931.095 499.98 934.815 497.82C938.655 495.66 941.835 491.64 944.355 485.76L981.615 394.86H1025.36L977.115 498.36C973.395 506.4 968.835 512.82 963.435 517.62C958.155 522.42 952.455 525.78 946.335 527.7C940.215 529.74 934.035 530.76 927.795 530.76ZM925.455 486.3L882.975 394.86H928.335L965.055 486.3H925.455Z" fill="white"/>
<path d="M224.53 126.2L228.53 117C239.864 117.4 249.33 119.2 256.93 122.4C264.53 125.6 270.197 130.067 273.93 135.8C277.797 141.4 279.73 148.133 279.73 156C279.73 164.133 277.864 171.467 274.13 178C270.53 184.533 264.997 189.667 257.53 193.4C250.064 197.133 240.73 199 229.53 199H111.73L123.13 122L111.73 49H225.33C239.197 49 250.064 52.2667 257.93 58.8C265.797 65.2 269.73 74.1333 269.73 85.6C269.73 92.1333 268.264 98.2667 265.33 104C262.397 109.733 257.597 114.6 250.93 118.6C244.397 122.467 235.597 125 224.53 126.2ZM162.13 187.8L142.53 164.8H213.13C217.53 164.8 220.997 163.667 223.53 161.4C226.064 159 227.33 155.8 227.33 151.8C227.33 148.2 226.064 145.133 223.53 142.6C221.13 140.067 217.53 138.8 212.73 138.8H153.53V105.2H205.13C208.597 105.2 211.464 104.133 213.73 102C216.13 99.8667 217.33 97.1333 217.33 93.8C217.33 90.7333 216.264 88.2 214.13 86.2C211.997 84.2 208.997 83.2 205.13 83.2H142.73L162.13 60.2L172.33 122L162.13 187.8ZM343.804 202.4C333.004 202.4 323.737 200.2 316.004 195.8C308.271 191.267 302.337 185 298.204 177C294.204 168.867 292.204 159.467 292.204 148.8V84H343.004V141.6C343.004 147.867 344.604 152.733 347.804 156.2C351.137 159.667 355.804 161.4 361.804 161.4C366.471 161.4 370.271 160.6 373.204 159C376.271 157.267 378.537 154.733 380.004 151.4C381.604 147.933 382.404 143.733 382.404 138.8L397.404 146.4C395.671 158.8 392.137 169.2 386.804 177.6C381.604 185.867 375.271 192.067 367.804 196.2C360.471 200.333 352.471 202.4 343.804 202.4ZM390.404 199L382.404 150V84H433.204V157.8L441.204 199H390.404ZM556.355 199L550.555 156.2L558.355 142L550.555 122.8L560.955 45H613.755L600.955 137.4L609.155 199H556.355ZM565.955 141.6C564.622 153.867 561.289 164.6 555.955 173.8C550.755 182.867 543.889 189.933 535.355 195C526.955 200.067 517.289 202.6 506.355 202.6C495.155 202.6 485.289 200.067 476.755 195C468.355 189.933 461.755 182.8 456.955 173.6C452.289 164.4 449.955 153.733 449.955 141.6C449.955 129.333 452.289 118.6 456.955 109.4C461.755 100.2 468.355 93.0667 476.755 88C485.289 82.9333 495.155 80.4 506.355 80.4C517.289 80.4 526.955 82.9333 535.355 88C543.889 92.9333 550.822 100 556.155 109.2C561.489 118.267 564.755 129.067 565.955 141.6ZM501.155 141.6C501.155 146 502.022 149.933 503.755 153.4C505.622 156.733 508.155 159.4 511.355 161.4C514.689 163.4 518.489 164.4 522.755 164.4C527.155 164.4 531.422 163.4 535.555 161.4C539.689 159.4 543.289 156.733 546.355 153.4C549.555 149.933 551.755 146 552.955 141.6C551.755 137.2 549.555 133.267 546.355 129.8C543.289 126.333 539.689 123.6 535.555 121.6C531.422 119.6 527.155 118.6 522.755 118.6C518.489 118.6 514.689 119.6 511.355 121.6C508.155 123.6 505.622 126.333 503.755 129.8C502.022 133.267 501.155 137.2 501.155 141.6ZM721.673 169.6V150.6L723.273 145V112.8L721.673 108.6V84H772.473V168.4C772.473 182.133 769.073 194 762.273 204C755.473 214.133 745.873 221.933 733.473 227.4C721.073 232.867 706.339 235.6 689.273 235.6C678.339 235.6 668.206 234.2 658.873 231.4C649.673 228.6 640.339 224.533 630.873 219.2V182.2C639.139 188.2 647.939 192.667 657.273 195.6C666.739 198.4 676.339 199.8 686.073 199.8C697.539 199.8 706.339 197.6 712.473 193.2C718.606 188.8 721.673 180.933 721.673 169.6ZM676.273 184.8C665.339 184.8 655.606 182.667 647.073 178.4C638.539 174 631.806 167.867 626.873 160C622.073 152.133 619.673 143 619.673 132.6C619.673 122.067 622.073 112.933 626.873 105.2C631.806 97.3333 638.539 91.2667 647.073 87C655.606 82.6 665.339 80.4 676.273 80.4C684.539 80.4 692.006 81.6667 698.673 84.2C705.473 86.7333 711.406 90.0667 716.473 94.2C721.673 98.3333 726.006 102.8 729.473 107.6C732.939 112.267 735.539 116.867 737.273 121.4C739.006 125.933 739.873 129.867 739.873 133.2C739.873 137.867 738.473 143.133 735.673 149C733.006 154.867 729.006 160.533 723.673 166C718.339 171.467 711.673 176 703.673 179.6C695.806 183.067 686.673 184.8 676.273 184.8ZM694.073 151.2C700.739 151.2 706.539 149.6 711.473 146.4C716.406 143.2 720.339 138.6 723.273 132.6C720.206 126.467 716.206 121.867 711.273 118.8C706.339 115.6 700.606 114 694.073 114C689.406 114 685.273 114.733 681.673 116.2C678.206 117.533 675.473 119.6 673.473 122.4C671.606 125.2 670.673 128.6 670.673 132.6C670.673 136.467 671.606 139.8 673.473 142.6C675.339 145.4 678.006 147.533 681.473 149C685.073 150.467 689.273 151.2 694.073 151.2ZM861.46 202.6C847.193 202.6 834.393 200.067 823.06 195C811.86 189.8 802.993 182.6 796.46 173.4C789.927 164.067 786.66 153.267 786.66 141C786.66 128.867 789.793 118.267 796.06 109.2C802.46 100.133 811.127 93.0667 822.06 88C832.993 82.9333 845.26 80.4 858.86 80.4C873.127 80.4 885.26 83.3333 895.26 89.2C905.26 95.0667 912.927 103.4 918.26 114.2C923.593 124.867 926.26 137.533 926.26 152.2H828.26V128.8H896.66L883.06 136.4C882.393 131.2 881.06 126.867 879.06 123.4C877.06 119.933 874.393 117.333 871.06 115.6C867.86 113.733 863.993 112.8 859.46 112.8C854.393 112.8 850.06 113.933 846.46 116.2C842.993 118.467 840.327 121.6 838.46 125.6C836.727 129.467 835.86 133.867 835.86 138.8C835.86 145.2 837.26 150.6 840.06 155C842.993 159.267 847.393 162.533 853.26 164.8C859.127 167.067 866.527 168.2 875.46 168.2C884.127 168.2 892.527 167.133 900.66 165C908.927 162.733 916.527 159.533 923.46 155.4V184.2C914.927 190.2 905.193 194.8 894.26 198C883.46 201.067 872.527 202.6 861.46 202.6ZM930.516 121V99.2L953.116 87.8L975.316 52.6H1003.92V84H1048.92V121H1003.92V144.6C1003.92 151.933 1005.32 157.133 1008.12 160.2C1010.92 163.133 1016.65 164.6 1025.32 164.6C1030.65 164.6 1035.38 164.267 1039.52 163.6C1043.78 162.8 1047.58 161.867 1050.92 160.8V197.6C1046.38 198.933 1040.78 200.067 1034.12 201C1027.58 202.067 1020.72 202.6 1013.52 202.6C999.916 202.6 988.65 200.6 979.716 196.6C970.783 192.467 964.116 186.533 959.716 178.8C955.316 171.067 953.116 161.867 953.116 151.2V121H930.516Z" fill="white"/>
<g filter="url(#filter0_n_36_23)">
<path d="M302.5 445.292C345.833 420.273 345.833 357.727 302.5 332.708L197.5 272.087C154.167 247.068 100 278.341 100 328.378V449.622C100 499.659 154.167 530.932 197.5 505.913L302.5 445.292Z" fill="white"/>
</g>
<path d="M255 386.66C261.667 382.811 261.667 373.189 255 369.34L180 326.038C173.333 322.189 165 327.001 165 334.699V421.301C165 428.999 173.333 433.811 180 429.962L255 386.66Z" fill="white"/>
<path d="M708.125 275.24H735.605L740.285 303.68V344H712.805V299.48L708.125 275.24ZM764.765 273.2C771.485 273.2 777.165 274.52 781.805 277.16C786.445 279.8 790.005 283.56 792.485 288.44C795.045 293.24 796.325 298.88 796.325 305.36V344H768.725V309.32C768.725 304.84 767.525 301.4 765.125 299C762.805 296.6 759.485 295.4 755.165 295.4C752.125 295.4 749.485 296.04 747.245 297.32C745.005 298.6 743.285 300.4 742.085 302.72C740.885 305.04 740.285 307.84 740.285 311.12L732.005 306.8C733.045 299.36 735.125 293.16 738.245 288.2C741.445 283.24 745.325 279.52 749.885 277.04C754.445 274.48 759.405 273.2 764.765 273.2ZM869.848 344L866.488 318.32L870.928 309.92L866.488 298.76L872.488 251.6H901.048L893.728 307.4L898.408 344H869.848ZM875.368 309.68C874.408 316.96 872.288 323.36 869.008 328.88C865.808 334.32 861.648 338.56 856.528 341.6C851.488 344.56 845.688 346.04 839.128 346.04C832.488 346.04 826.608 344.52 821.488 341.48C816.368 338.44 812.368 334.2 809.488 328.76C806.688 323.24 805.288 316.88 805.288 309.68C805.288 302.32 806.688 295.92 809.488 290.48C812.368 284.96 816.368 280.72 821.488 277.76C826.608 274.72 832.488 273.2 839.128 273.2C845.688 273.2 851.488 274.68 856.528 277.64C861.648 280.6 865.848 284.84 869.128 290.36C872.408 295.8 874.488 302.24 875.368 309.68ZM833.008 309.68C833.008 312.72 833.608 315.4 834.808 317.72C836.088 320.04 837.848 321.88 840.088 323.24C842.328 324.6 844.888 325.28 847.768 325.28C850.728 325.28 853.568 324.6 856.288 323.24C859.008 321.88 861.408 320.04 863.488 317.72C865.568 315.4 867.088 312.72 868.048 309.68C867.088 306.64 865.568 303.96 863.488 301.64C861.408 299.24 859.008 297.36 856.288 296C853.568 294.64 850.728 293.96 847.768 293.96C844.888 293.96 842.328 294.64 840.088 296C837.848 297.36 836.088 299.24 834.808 301.64C833.608 303.96 833.008 306.64 833.008 309.68ZM908.943 273.92L922.743 276.8L936.423 273.92V344H908.943V273.92ZM922.743 269.36C918.103 269.36 914.343 268.2 911.463 265.88C908.583 263.56 907.143 260.44 907.143 256.52C907.143 252.52 908.583 249.36 911.463 247.04C914.343 244.72 918.103 243.56 922.743 243.56C927.543 243.56 931.343 244.72 934.143 247.04C937.023 249.36 938.463 252.52 938.463 256.52C938.463 260.44 937.023 263.56 934.143 265.88C931.343 268.2 927.543 269.36 922.743 269.36ZM990.781 346.04C981.901 346.04 974.101 344.52 967.381 341.48C960.661 338.44 955.421 334.2 951.661 328.76C947.901 323.24 946.021 316.88 946.021 309.68C946.021 302.32 947.901 295.92 951.661 290.48C955.421 284.96 960.661 280.72 967.381 277.76C974.101 274.72 981.941 273.2 990.901 273.2C999.781 273.2 1007.58 274.72 1014.3 277.76C1021.02 280.72 1026.22 284.96 1029.9 290.48C1033.66 295.92 1035.54 302.32 1035.54 309.68C1035.54 316.88 1033.66 323.24 1029.9 328.76C1026.22 334.2 1021.02 338.44 1014.3 341.48C1007.58 344.52 999.741 346.04 990.781 346.04ZM990.901 325.88C994.501 325.88 997.541 325.24 1000.02 323.96C1002.58 322.68 1004.5 320.84 1005.78 318.44C1007.14 315.96 1007.82 313.04 1007.82 309.68C1007.82 306.24 1007.14 303.32 1005.78 300.92C1004.5 298.44 1002.58 296.56 1000.02 295.28C997.541 294 994.501 293.36 990.901 293.36C987.301 293.36 984.221 294 981.661 295.28C979.101 296.56 977.141 298.44 975.781 300.92C974.501 303.32 973.861 306.2 973.861 309.56C973.861 313 974.501 315.96 975.781 318.44C977.141 320.84 979.101 322.68 981.661 323.96C984.221 325.24 987.301 325.88 990.901 325.88Z" fill="white"/>
<defs>
<filter id="filter0_n_36_23" x="100" y="263.281" width="235" height="251.438" filterUnits="userSpaceOnUse" color-interpolation-filters="sRGB">
<feFlood flood-opacity="0" result="BackgroundImageFix"/>
<feBlend mode="normal" in="SourceGraphic" in2="BackgroundImageFix" result="shape"/>
<feTurbulence type="fractalNoise" baseFrequency="0.25 0.25" stitchTiles="stitch" numOctaves="3" result="noise" seed="3549" />
<feColorMatrix in="noise" type="luminanceToAlpha" result="alphaNoise" />
<feComponentTransfer in="alphaNoise" result="coloredNoise1">
<feFuncA type="discrete" tableValues="1 1 1 1 1 1 1 1 1 1 1 1 1 1 1 1 1 1 1 1 1 1 1 1 1 1 1 1 1 1 1 1 1 1 1 1 1 1 1 1 1 1 1 1 1 1 1 1 1 1 1 0 0 0 0 0 0 0 0 0 0 0 0 0 0 0 0 0 0 0 0 0 0 0 0 0 0 0 0 0 0 0 0 0 0 0 0 0 0 0 0 0 0 0 0 0 0 0 0 0 "/>
</feComponentTransfer>
<feComposite operator="in" in2="shape" in="coloredNoise1" result="noise1Clipped" />
<feFlood flood-color="rgba(0, 0, 0, 0.25)" result="color1Flood" />
<feComposite operator="in" in2="noise1Clipped" in="color1Flood" result="color1" />
<feMerge result="effect1_noise_36_23">
<feMergeNode in="shape" />
<feMergeNode in="color1" />
</feMerge>
</filter>
</defs>
</svg>
