<svg width="1350" height="1350" viewBox="0 0 1350 1350" fill="none" xmlns="http://www.w3.org/2000/svg">
<path d="M191.685 676.2L193.285 672.5C199.151 672.633 203.951 673.533 207.685 675.2C211.485 676.867 214.285 679.167 216.085 682.1C217.951 684.967 218.885 688.3 218.885 692.1C218.885 696.1 217.951 699.7 216.085 702.9C214.218 706.033 211.418 708.5 207.685 710.3C204.018 712.1 199.418 713 193.885 713H139.885L145.685 674.5L139.885 638H191.985C198.918 638 204.285 639.633 208.085 642.9C211.951 646.1 213.885 650.533 213.885 656.2C213.885 659.333 213.151 662.333 211.685 665.2C210.218 668.067 207.885 670.5 204.685 672.5C201.485 674.433 197.151 675.667 191.685 676.2ZM158.485 708.4L151.285 699.5H189.385C192.651 699.5 195.185 698.733 196.985 697.2C198.851 695.6 199.785 693.367 199.785 690.5C199.785 687.633 198.751 685.367 196.685 683.7C194.685 681.967 191.685 681.1 187.685 681.1H156.485V667.9H185.285C188.018 667.9 190.285 667.133 192.085 665.6C193.885 664 194.785 661.833 194.785 659.1C194.785 656.9 194.018 655.1 192.485 653.7C190.951 652.233 188.718 651.5 185.785 651.5H151.385L158.485 642.6L163.785 674.5L158.485 708.4ZM247.487 679.8C247.487 683.467 248.187 686.667 249.587 689.4C251.054 692.067 253.154 694.133 255.887 695.6C258.62 697 261.987 697.7 265.987 697.7C270.054 697.7 273.454 697 276.187 695.6C278.92 694.133 280.987 692.067 282.387 689.4C283.787 686.667 284.487 683.467 284.487 679.8V638H303.287V680.7C303.287 687.5 301.72 693.433 298.587 698.5C295.52 703.567 291.187 707.533 285.587 710.4C279.987 713.2 273.454 714.6 265.987 714.6C258.52 714.6 251.987 713.2 246.387 710.4C240.787 707.533 236.42 703.567 233.287 698.5C230.154 693.433 228.587 687.5 228.587 680.7V638H247.487V679.8ZM353.589 638C362.389 638 370.089 639.567 376.689 642.7C383.289 645.833 388.423 650.2 392.089 655.8C395.823 661.4 397.689 667.967 397.689 675.5C397.689 682.967 395.823 689.533 392.089 695.2C388.423 700.8 383.289 705.167 376.689 708.3C370.089 711.433 362.389 713 353.589 713H316.989V638H353.589ZM335.789 705.3L326.589 696.3H354.989C359.789 696.3 363.956 695.433 367.489 693.7C371.023 691.967 373.756 689.567 375.689 686.5C377.623 683.367 378.589 679.7 378.589 675.5C378.589 671.233 377.623 667.567 375.689 664.5C373.756 661.433 371.023 659.033 367.489 657.3C363.956 655.567 359.789 654.7 354.989 654.7H326.589L335.789 645.7V705.3ZM485.186 680.5C485.053 685.033 484.153 689.367 482.486 693.5C480.82 697.567 478.42 701.2 475.286 704.4C472.153 707.533 468.286 710.033 463.686 711.9C459.086 713.7 453.72 714.6 447.586 714.6C441.72 714.6 436.22 713.733 431.086 712C426.02 710.267 421.553 707.733 417.686 704.4C413.82 701 410.82 696.9 408.686 692.1C406.553 687.233 405.486 681.7 405.486 675.5C405.486 669.3 406.553 663.8 408.686 659C410.886 654.133 413.92 650.033 417.786 646.7C421.72 643.3 426.286 640.733 431.486 639C436.753 637.267 442.486 636.4 448.686 636.4C456.753 636.4 463.753 637.667 469.686 640.2C475.686 642.733 480.486 646.2 484.086 650.6C487.753 655 490.086 660.067 491.086 665.8H471.986C471.32 663 469.92 660.6 467.786 658.6C465.653 656.533 462.953 654.967 459.686 653.9C456.486 652.833 452.82 652.3 448.686 652.3C443.686 652.3 439.386 653.2 435.786 655C432.186 656.733 429.386 659.333 427.386 662.8C425.386 666.2 424.386 670.433 424.386 675.5C424.386 680.567 425.42 684.867 427.486 688.4C429.62 691.933 432.62 694.6 436.486 696.4C440.42 698.2 445.02 699.1 450.286 699.1C455.42 699.1 459.92 698.333 463.786 696.8C467.72 695.267 470.82 693.067 473.086 690.2C475.42 687.333 476.753 683.9 477.086 679.9L485.186 680.5ZM452.486 688.1V674.7H491.786V713H478.286L475.686 683L479.486 688.1H452.486ZM567.785 668.5V682.5H513.485V668.5H567.785ZM526.285 675.5L521.285 706.5L513.385 697.6H570.985V713H502.385L508.185 675.5L502.385 638H570.485V653.4H513.385L521.285 644.5L526.285 675.5ZM606.119 646.3H625.019V713H606.119V646.3ZM576.919 638H654.219V654.7H576.919V638ZM694.379 706.55L691.329 707.1V675.5H700.479V713H688.579L665.729 681.4L668.779 680.85V713H659.629V675.5H671.879L694.379 706.55ZM726.073 675.5C730.473 675.5 734.323 676.283 737.623 677.85C740.923 679.417 743.49 681.6 745.323 684.4C747.19 687.2 748.123 690.483 748.123 694.25C748.123 697.983 747.19 701.267 745.323 704.1C743.49 706.9 740.923 709.083 737.623 710.65C734.323 712.217 730.473 713 726.073 713H707.773V675.5H726.073ZM717.173 709.15L712.573 704.65H726.773C729.173 704.65 731.256 704.217 733.023 703.35C734.79 702.483 736.156 701.283 737.123 699.75C738.09 698.183 738.573 696.35 738.573 694.25C738.573 692.117 738.09 690.283 737.123 688.75C736.156 687.217 734.79 686.017 733.023 685.15C731.256 684.283 729.173 683.85 726.773 683.85H712.573L717.173 679.35V709.15ZM753.671 675.5H763.121V713H753.671V675.5ZM790.77 713.8C786.37 713.8 782.503 712.983 779.17 711.35C775.87 709.717 773.303 707.433 771.47 704.5C769.636 701.567 768.72 698.15 768.72 694.25C768.72 690.35 769.636 686.933 771.47 684C773.303 681.067 775.87 678.783 779.17 677.15C782.503 675.517 786.37 674.7 790.77 674.7C795.17 674.7 799.02 675.517 802.32 677.15C805.653 678.783 808.236 681.067 810.07 684C811.936 686.933 812.87 690.35 812.87 694.25C812.87 698.15 811.936 701.567 810.07 704.5C808.236 707.433 805.653 709.717 802.32 711.35C799.02 712.983 795.17 713.8 790.77 713.8ZM790.77 705.35C793.37 705.35 795.603 704.917 797.47 704.05C799.336 703.15 800.77 701.867 801.77 700.2C802.803 698.533 803.32 696.55 803.32 694.25C803.32 691.95 802.803 689.967 801.77 688.3C800.77 686.633 799.336 685.367 797.47 684.5C795.603 683.6 793.37 683.15 790.77 683.15C788.203 683.15 785.986 683.6 784.12 684.5C782.253 685.367 780.803 686.633 779.77 688.3C778.736 689.967 778.22 691.95 778.22 694.25C778.22 696.55 778.736 698.533 779.77 700.2C780.803 701.867 782.253 703.15 784.12 704.05C785.986 704.917 788.203 705.35 790.77 705.35ZM818.516 688.5H837.616C837.95 690.767 838.983 692.767 840.716 694.5C842.45 696.233 844.75 697.567 847.616 698.5C850.55 699.433 853.95 699.9 857.816 699.9C863.35 699.9 867.683 699.133 870.816 697.6C874.016 696.067 875.616 693.9 875.616 691.1C875.616 688.967 874.683 687.333 872.816 686.2C871.016 685 867.616 684.133 862.616 683.6L848.116 682.1C838.05 681.1 830.75 678.767 826.216 675.1C821.75 671.433 819.516 666.433 819.516 660.1C819.516 655.1 820.983 650.833 823.916 647.3C826.916 643.767 831.083 641.067 836.416 639.2C841.816 637.333 848.116 636.4 855.316 636.4C862.45 636.4 868.75 637.433 874.216 639.5C879.683 641.567 884.05 644.433 887.316 648.1C890.583 651.767 892.35 656.033 892.616 660.9H873.516C873.25 658.9 872.316 657.2 870.716 655.8C869.183 654.333 867.083 653.2 864.416 652.4C861.816 651.533 858.65 651.1 854.916 651.1C849.916 651.1 845.916 651.833 842.916 653.3C839.983 654.7 838.516 656.733 838.516 659.4C838.516 661.4 839.383 662.967 841.116 664.1C842.916 665.233 846.083 666.067 850.616 666.6L865.916 668.3C872.916 669.033 878.516 670.2 882.716 671.8C886.916 673.4 889.95 675.6 891.816 678.4C893.683 681.2 894.616 684.733 894.616 689C894.616 694.133 893.05 698.633 889.916 702.5C886.85 706.3 882.516 709.267 876.916 711.4C871.383 713.533 864.916 714.6 857.516 714.6C849.85 714.6 843.116 713.5 837.316 711.3C831.583 709.1 827.05 706.067 823.716 702.2C820.45 698.267 818.716 693.7 818.516 688.5ZM926.383 646.3H945.283V713H926.383V646.3ZM897.183 638H974.483V654.7H897.183V638ZM1020.92 714.6C1012.12 714.6 1004.39 712.967 997.722 709.7C991.122 706.433 985.989 701.867 982.322 696C978.655 690.133 976.822 683.3 976.822 675.5C976.822 667.7 978.655 660.867 982.322 655C985.989 649.133 991.122 644.567 997.722 641.3C1004.39 638.033 1012.12 636.4 1020.92 636.4C1029.72 636.4 1037.42 638.033 1044.02 641.3C1050.69 644.567 1055.86 649.133 1059.52 655C1063.26 660.867 1065.12 667.7 1065.12 675.5C1065.12 683.3 1063.26 690.133 1059.52 696C1055.86 701.867 1050.69 706.433 1044.02 709.7C1037.42 712.967 1029.72 714.6 1020.92 714.6ZM1020.92 697.7C1026.12 697.7 1030.59 696.833 1034.32 695.1C1038.06 693.3 1040.92 690.733 1042.92 687.4C1044.99 684.067 1046.02 680.1 1046.02 675.5C1046.02 670.9 1044.99 666.933 1042.92 663.6C1040.92 660.267 1038.06 657.733 1034.32 656C1030.59 654.2 1026.12 653.3 1020.92 653.3C1015.79 653.3 1011.36 654.2 1007.62 656C1003.89 657.733 1000.99 660.267 998.922 663.6C996.855 666.933 995.822 670.9 995.822 675.5C995.822 680.1 996.855 684.067 998.922 687.4C1000.99 690.733 1003.89 693.3 1007.62 695.1C1011.36 696.833 1015.79 697.7 1020.92 697.7ZM1089.42 671H1117.52C1121.05 671 1123.85 670.2 1125.92 668.6C1127.98 666.933 1129.02 664.633 1129.02 661.7C1129.02 658.767 1127.98 656.5 1125.92 654.9C1123.85 653.233 1121.05 652.4 1117.52 652.4H1086.72L1095.22 643.1V713H1076.32V638H1120.02C1125.62 638 1130.52 639 1134.72 641C1138.92 643 1142.18 645.767 1144.52 649.3C1146.85 652.833 1148.02 656.967 1148.02 661.7C1148.02 666.367 1146.85 670.467 1144.52 674C1142.18 677.533 1138.92 680.3 1134.72 682.3C1130.52 684.233 1125.62 685.2 1120.02 685.2H1089.42V671ZM1101.52 677.9H1122.82L1150.42 713H1128.52L1101.52 677.9ZM1183.05 713V676.7H1201.95V713H1183.05ZM1147.85 638H1168.75L1196.75 673.6H1188.05L1216.05 638H1236.95L1198.55 686.8L1186.35 687L1147.85 638ZM1238.59 714C1236.59 714 1234.76 713.533 1233.09 712.6C1231.49 711.667 1230.23 710.4 1229.29 708.8C1228.36 707.133 1227.89 705.3 1227.89 703.3C1227.89 701.3 1228.36 699.5 1229.29 697.9C1230.23 696.3 1231.49 695.033 1233.09 694.1C1234.76 693.1 1236.59 692.6 1238.59 692.6C1240.59 692.6 1242.39 693.1 1243.99 694.1C1245.59 695.033 1246.86 696.3 1247.79 697.9C1248.73 699.5 1249.19 701.3 1249.19 703.3C1249.19 705.3 1248.73 707.133 1247.79 708.8C1246.86 710.4 1245.59 711.667 1243.99 712.6C1242.39 713.533 1240.59 714 1238.59 714Z" fill="black"/>
</svg>
